<svg
    width="150"
    height="50"
    viewBox="0 0 150 50"
    fill="none"
    xmlns="http://www.w3.org/2000/svg"
  >
    <g clip-path="url(#ios)">
      <path
        d="M137.19 4.04297e-05H11.8769C11.4201 4.04297e-05 10.9688 4.04298e-05 10.5132 0.00254043C10.1319 0.00504043 9.75357 0.0123029 9.36855 0.0184154C8.53211 0.0282927 7.69764 0.102136 6.87239 0.239303C6.0483 0.379456 5.25002 0.643685 4.50455 1.02305C3.76 1.40563 3.07968 1.90275 2.48828 2.49638C1.89377 3.08834 1.3982 3.77256 1.02063 4.52274C0.64201 5.27143 0.379476 6.07371 0.242093 6.90189C0.103403 7.72902 0.0287726 8.56569 0.0188716 9.40439C0.00731198 9.78764 0.00609124 10.1722 0 10.5555V39.4483C0.00609124 39.8364 0.00731198 40.2124 0.0188716 40.6007C0.0287756 41.4393 0.103406 42.2759 0.242093 43.103C0.379097 43.9317 0.641646 44.7344 1.02063 45.4834C1.39803 46.2312 1.89367 46.9126 2.48828 47.5013C3.07744 48.0976 3.7582 48.595 4.50455 48.9747C5.25001 49.355 6.0482 49.6208 6.87239 49.7632C7.69778 49.8992 8.53217 49.9731 9.36855 49.9842C9.75357 49.9927 10.1319 49.9975 10.5132 49.9975C10.9688 50 11.4201 50 11.8769 50H137.19C137.637 50 138.092 50 138.54 49.9975C138.919 49.9975 139.309 49.9927 139.688 49.9842C140.523 49.9737 141.356 49.8998 142.18 49.7632C143.006 49.6199 143.808 49.3541 144.557 48.9747C145.302 48.5948 145.982 48.0974 146.571 47.5013C147.164 46.9103 147.661 46.2294 148.043 45.4834C148.419 44.7339 148.679 43.9312 148.814 43.103C148.953 42.2758 149.03 41.4394 149.045 40.6007C149.05 40.2124 149.05 39.8364 149.05 39.4483C149.06 38.9942 149.06 38.5425 149.06 38.081V11.9202C149.06 11.4624 149.06 11.0083 149.05 10.5555C149.05 10.1722 149.05 9.78764 149.045 9.40434C149.03 8.56557 148.953 7.72909 148.814 6.90184C148.679 6.07414 148.419 5.27192 148.043 4.52269C147.274 3.01904 146.055 1.79507 144.557 1.02294C143.808 0.6445 143.006 0.380341 142.18 0.23919C141.356 0.101419 140.523 0.0275501 139.688 0.0182404C139.309 0.0121404 138.919 0.00481543 138.54 0.00237793C138.092 -0.00012207 137.637 -0.00012207 137.19 -0.00012207V4.04297e-05Z"
        fill="#A6A6A6"
      />
      <path
        d="M10.5193 48.9062C10.1397 48.9062 9.76938 48.9014 9.39283 48.8929C8.61278 48.8827 7.83455 48.8145 7.06453 48.689C6.34652 48.5649 5.65097 48.3341 5.00081 48.0041C4.35661 47.6769 3.76905 47.2478 3.26063 46.7334C2.74486 46.225 2.31545 45.6353 1.98943 44.9878C1.65982 44.336 1.4317 43.6374 1.31304 42.9163C1.18489 42.1414 1.11556 41.3579 1.10564 40.5725C1.09774 40.3089 1.0874 39.4311 1.0874 39.4311V10.5554C1.0874 10.5554 1.09841 9.69116 1.1057 9.43725C1.1152 8.6531 1.18413 7.87082 1.31189 7.09716C1.43078 6.37406 1.65907 5.67344 1.98886 5.01954C2.31368 4.37243 2.7407 3.78233 3.25337 3.2721C3.76546 2.75703 4.3549 2.32576 5.0002 1.99401C5.64886 1.66512 6.3431 1.43592 7.05966 1.31409C7.83221 1.1873 8.61314 1.11875 9.39589 1.10901L10.5199 1.09375H138.534L139.671 1.10963C140.447 1.11887 141.221 1.18681 141.986 1.31286C142.71 1.43622 143.411 1.66702 144.067 1.99768C145.36 2.66623 146.412 3.72395 147.076 5.02259C147.4 5.67197 147.625 6.36688 147.742 7.08374C147.872 7.86374 147.944 8.65217 147.959 9.44275C147.963 9.79675 147.963 10.177 147.963 10.5554C147.972 11.0242 147.972 11.4703 147.972 11.9202V38.081C147.972 38.5351 147.972 38.9783 147.963 39.425C147.963 39.8315 147.963 40.2039 147.958 40.5871C147.943 41.3636 147.872 42.138 147.745 42.904C147.629 43.6303 147.402 44.3344 147.072 44.9915C146.744 45.632 146.317 46.2166 145.807 46.7236C145.298 47.2409 144.71 47.6724 144.064 48.0018C143.41 48.3342 142.709 48.5659 141.986 48.689C141.216 48.8152 140.438 48.8834 139.658 48.8929C139.293 48.9014 138.911 48.9062 138.54 48.9062L137.19 48.9087L10.5193 48.9062Z"
        fill="black"
      />
      <path
        d="M30.8535 25.3759C30.8668 24.3326 31.143 23.3096 31.6563 22.4022C32.1695 21.4947 32.9031 20.7323 33.7889 20.1858C33.2262 19.3794 32.4839 18.7157 31.6208 18.2475C30.7578 17.7793 29.7979 17.5195 28.8173 17.4887C26.7256 17.2684 24.6977 18.7448 23.6318 18.7448C22.5452 18.7448 20.9041 17.5106 19.1368 17.5471C17.9937 17.5841 16.8797 17.9177 15.9033 18.5153C14.9268 19.1129 14.1213 19.9541 13.5651 20.9569C11.156 25.1424 12.953 31.2938 15.2607 34.677C16.4153 36.3337 17.7647 38.1843 19.5304 38.1187C21.2582 38.0467 21.9035 37.013 23.989 37.013C26.0553 37.013 26.6607 38.1187 28.4622 38.0769C30.3162 38.0467 31.4843 36.4129 32.5984 34.7405C33.428 33.56 34.0663 32.2554 34.4898 30.8749C33.4127 30.4177 32.4935 29.6525 31.8468 28.6746C31.2002 27.6967 30.8547 26.5495 30.8535 25.3759Z"
        fill="white"
      />
      <path
        d="M27.4508 15.2637C28.4617 14.0459 28.9597 12.4807 28.8391 10.9004C27.2947 11.0632 25.8681 11.8039 24.8436 12.9749C24.3427 13.547 23.959 14.2125 23.7146 14.9335C23.4701 15.6545 23.3696 16.4167 23.4189 17.1766C24.1914 17.1846 24.9556 17.0166 25.654 16.6852C26.3524 16.3539 26.9668 15.8678 27.4508 15.2637Z"
        fill="white"
      />
      <path
        d="M52.694 33.9246H46.7979L45.3819 38.1202H42.8845L48.4693 22.5977H51.064L56.6487 38.1202H54.1088L52.694 33.9246ZM47.4085 31.9886H52.0822L49.7782 25.1795H49.7138L47.4085 31.9886Z"
        fill="white"
      />
      <path
        d="M68.71 32.4622C68.71 35.979 66.8342 38.2385 64.0036 38.2385C63.2865 38.2762 62.5734 38.1104 61.9458 37.7603C61.3183 37.4101 60.8017 36.8897 60.4552 36.2585H60.4016V41.864H58.0867V26.803H60.3274V28.6853H60.37C60.7324 28.0572 61.2578 27.5395 61.8901 27.1872C62.5224 26.8349 63.2381 26.6612 63.961 26.6846C66.8232 26.6846 68.71 28.9551 68.71 32.4622ZM66.3306 32.4622C66.3306 30.1709 65.1507 28.6646 63.3503 28.6646C61.5816 28.6646 60.3919 30.2027 60.3919 32.4622C60.3919 34.7425 61.5816 36.2696 63.3503 36.2696C65.1507 36.2696 66.3306 34.7742 66.3306 32.4622Z"
        fill="white"
      />
      <path
        d="M81.1226 32.4622C81.1226 35.979 79.2468 38.2385 76.4162 38.2385C75.6991 38.2762 74.986 38.1104 74.3584 37.7602C73.7308 37.4101 73.2142 36.8896 72.8678 36.2585H72.8142V41.864H70.4993V26.803H72.74V28.6853H72.7825C73.145 28.0572 73.6703 27.5395 74.3026 27.1872C74.935 26.8349 75.6507 26.6612 76.3735 26.6846C79.2359 26.6846 81.1226 28.9551 81.1226 32.4622ZM78.7432 32.4622C78.7432 30.1709 77.5633 28.6646 75.7629 28.6646C73.9942 28.6646 72.8045 30.2026 72.8045 32.4622C72.8045 34.7424 73.9942 36.2695 75.7629 36.2695C77.5633 36.2695 78.7432 34.7742 78.7432 32.4622H78.7432Z"
        fill="white"
      />
      <path
        d="M89.3265 33.7952C89.498 35.3345 90.9882 36.3452 93.0245 36.3452C94.9757 36.3452 96.3795 35.3345 96.3795 33.9465C96.3795 32.7417 95.5328 32.0203 93.5281 31.5259L91.5234 31.0413C88.683 30.3528 87.3643 29.0198 87.3643 26.8567C87.3643 24.1785 89.6902 22.3389 92.9929 22.3389C96.2615 22.3389 98.5022 24.1785 98.5776 26.8567H96.2408C96.1009 25.3076 94.8248 24.3726 92.96 24.3726C91.0952 24.3726 89.8191 25.3186 89.8191 26.6956C89.8191 27.793 90.6342 28.4387 92.6279 28.9331L94.3322 29.353C97.5059 30.1062 98.8246 31.3855 98.8246 33.656C98.8246 36.56 96.5194 38.3789 92.853 38.3789C89.4225 38.3789 87.1064 36.6027 86.9568 33.7951L89.3265 33.7952Z"
        fill="white"
      />
      <path
        d="M103.821 24.1249V26.8031H105.965V28.6427H103.821V34.8817C103.821 35.851 104.25 36.3026 105.193 36.3026C105.447 36.2982 105.702 36.2802 105.954 36.2489V38.0775C105.53 38.1569 105.1 38.1929 104.669 38.1849C102.385 38.1849 101.495 37.3243 101.495 35.1295V28.6427H99.855V26.8031H101.495V24.1249H103.821Z"
        fill="white"
      />
      <path
        d="M107.207 32.4623C107.207 28.9015 109.297 26.6639 112.556 26.6639C115.826 26.6639 117.906 28.9014 117.906 32.4623C117.906 36.0328 115.837 38.2606 112.556 38.2606C109.276 38.2606 107.207 36.0328 107.207 32.4623ZM115.547 32.4623C115.547 30.0197 114.432 28.578 112.556 28.578C110.68 28.578 109.566 30.0306 109.566 32.4623C109.566 34.9147 110.68 36.3453 112.556 36.3453C114.432 36.3453 115.547 34.9147 115.547 32.4623H115.547Z"
        fill="white"
      />
      <path
        d="M119.814 26.803H122.022V28.7293H122.076C122.225 28.1277 122.576 27.596 123.071 27.2236C123.565 26.8513 124.171 26.6609 124.789 26.6846C125.055 26.6836 125.321 26.7127 125.582 26.7713V28.9441C125.245 28.8408 124.894 28.7934 124.542 28.8037C124.205 28.79 123.87 28.8495 123.559 28.9782C123.248 29.1068 122.968 29.3014 122.739 29.5488C122.509 29.7962 122.336 30.0904 122.231 30.4112C122.126 30.732 122.091 31.0719 122.129 31.4075V38.1201H119.814L119.814 26.803Z"
        fill="white"
      />
      <path
        d="M136.255 34.7963C135.944 36.8507 133.95 38.2606 131.399 38.2606C128.118 38.2606 126.082 36.0548 126.082 32.516C126.082 28.9662 128.129 26.6639 131.302 26.6639C134.422 26.6639 136.384 28.8148 136.384 32.2462V33.0421H128.419V33.1825C128.382 33.599 128.434 34.0186 128.571 34.4134C128.708 34.8082 128.928 35.1692 129.215 35.4723C129.502 35.7755 129.849 36.014 130.235 36.1719C130.621 36.3297 131.036 36.4034 131.452 36.3881C131.999 36.4395 132.548 36.3123 133.018 36.0255C133.487 35.7387 133.851 35.3076 134.057 34.7963L136.255 34.7963ZM128.43 31.4186H134.068C134.089 31.0441 134.032 30.6693 133.902 30.3178C133.771 29.9663 133.57 29.6456 133.31 29.3759C133.05 29.1062 132.738 28.8933 132.392 28.7505C132.047 28.6077 131.675 28.5382 131.302 28.5463C130.925 28.544 130.551 28.6167 130.202 28.7601C129.853 28.9035 129.536 29.1149 129.269 29.3819C129.002 29.649 128.79 29.9664 128.646 30.316C128.502 30.6656 128.429 31.0403 128.43 31.4186V31.4186Z"
        fill="white"
      />
      <path
        d="M47.1183 10.9137C47.6036 10.8788 48.0906 10.9524 48.5442 11.1292C48.9978 11.3059 49.4066 11.5815 49.7411 11.9361C50.0757 12.2906 50.3277 12.7152 50.4789 13.1793C50.6301 13.6434 50.6768 14.1354 50.6156 14.6198C50.6156 17.0026 49.3323 18.3723 47.1183 18.3723H44.4336V10.9137H47.1183ZM45.588 17.3175H46.9894C47.3362 17.3383 47.6832 17.2812 48.0053 17.1505C48.3273 17.0197 48.6163 16.8185 48.8511 16.5616C49.0859 16.3046 49.2606 15.9983 49.3626 15.6651C49.4645 15.3318 49.4912 14.9799 49.4405 14.635C49.4875 14.2914 49.4582 13.9417 49.3546 13.6109C49.2511 13.2801 49.0759 12.9763 48.8417 12.7214C48.6074 12.4665 48.3198 12.2667 47.9996 12.1364C47.6794 12.0061 47.3344 11.9485 46.9894 11.9677H45.588V17.3175Z"
        fill="white"
      />
      <path
        d="M56.9412 16.8524C56.7908 17.3668 56.465 17.8118 56.0206 18.1095C55.5763 18.4072 55.0419 18.5386 54.5107 18.4808C54.1412 18.4906 53.774 18.4196 53.4345 18.2727C53.0951 18.1258 52.7916 17.9065 52.545 17.63C52.2985 17.3536 52.1149 17.0267 52.0069 16.6719C51.8989 16.3171 51.8691 15.943 51.9197 15.5755C51.8705 15.2069 51.9008 14.832 52.0085 14.4762C52.1162 14.1203 52.2989 13.7919 52.5441 13.513C52.7893 13.2342 53.0914 13.0115 53.4299 12.86C53.7683 12.7085 54.1353 12.6317 54.5059 12.6349C56.0666 12.6349 57.0081 13.7049 57.0081 15.4724V15.86H53.0474V15.9222C53.0301 16.1288 53.0559 16.3367 53.1233 16.5326C53.1908 16.7286 53.2982 16.9082 53.4389 17.06C53.5795 17.2119 53.7502 17.3325 53.9401 17.4143C54.1299 17.496 54.3346 17.537 54.5412 17.5347C54.806 17.5666 55.0743 17.5188 55.3119 17.3973C55.5495 17.2758 55.7458 17.0861 55.8757 16.8524L56.9412 16.8524ZM53.0473 15.0384H55.8804C55.8944 14.8495 55.8688 14.6598 55.8053 14.4814C55.7419 14.303 55.6419 14.1399 55.5119 14.0026C55.3818 13.8652 55.2246 13.7567 55.0503 13.684C54.876 13.6113 54.6885 13.576 54.4997 13.5803C54.3083 13.5779 54.1183 13.614 53.941 13.6864C53.7636 13.7589 53.6025 13.8662 53.4672 14.0021C53.3318 14.138 53.225 14.2997 53.1529 14.4777C53.0808 14.6556 53.0449 14.8463 53.0474 15.0384H53.0473Z"
        fill="white"
      />
      <path
        d="M60.5444 12.6349C61.8058 12.6349 62.6306 13.2239 62.7389 14.2163H61.6769C61.5748 13.8031 61.1721 13.5394 60.5444 13.5394C59.9264 13.5394 59.4569 13.8336 59.4569 14.2731C59.4569 14.6093 59.7404 14.8212 60.3486 14.9609L61.2803 15.1776C62.3472 15.426 62.8471 15.8862 62.8471 16.7133C62.8471 17.7728 61.8631 18.4808 60.5237 18.4808C59.1892 18.4808 58.3195 17.876 58.2209 16.8787H59.3291C59.4246 17.116 59.5968 17.3143 59.8181 17.4417C60.0393 17.5691 60.2968 17.6182 60.5492 17.5812C61.239 17.5812 61.7292 17.2712 61.7292 16.8213C61.7292 16.4856 61.4665 16.2683 60.9045 16.134L59.9264 15.9064C58.8596 15.6531 58.3657 15.1727 58.3657 14.3353C58.3657 13.3374 59.2768 12.6349 60.5444 12.6349Z"
        fill="white"
      />
      <path
        d="M68.011 14.5831C67.9404 14.2912 67.768 14.0343 67.525 13.859C67.282 13.6837 66.9845 13.6014 66.6863 13.6272C65.7593 13.6272 65.1924 14.3401 65.1924 15.5395C65.1924 16.7596 65.7642 17.4883 66.6863 17.4883C66.9815 17.5227 67.2791 17.4476 67.5231 17.2772C67.767 17.1068 67.9405 16.8528 68.011 16.563H69.0876C69.0164 17.133 68.7261 17.6525 68.2786 18.0108C67.8312 18.369 67.262 18.5377 66.6923 18.4808C66.3173 18.4927 65.9442 18.4222 65.5991 18.2742C65.254 18.1263 64.9453 17.9045 64.6946 17.6244C64.4439 17.3442 64.2572 17.0125 64.1475 16.6524C64.0379 16.2923 64.008 15.9124 64.0599 15.5395C64.0106 15.1693 64.0424 14.7928 64.1531 14.4363C64.2638 14.0797 64.4507 13.7517 64.7008 13.4751C64.9509 13.1985 65.2581 12.98 65.601 12.8349C65.944 12.6898 66.3143 12.6215 66.6863 12.6349C67.2605 12.5818 67.8328 12.7557 68.2813 13.1195C68.7297 13.4834 69.019 14.0085 69.0876 14.5831L68.011 14.5831Z"
        fill="white"
      />
      <path
        d="M70.186 16.7804C70.186 15.7672 70.9378 15.1831 72.2723 15.1001L73.7916 15.0122V14.5264C73.7916 13.9319 73.3999 13.5962 72.6433 13.5962C72.0253 13.5962 71.5971 13.8239 71.4743 14.2218H70.4026C70.5157 13.255 71.422 12.6349 72.6944 12.6349C74.1006 12.6349 74.8937 13.3374 74.8937 14.5264V18.3722H73.8281V17.5812H73.7405C73.5627 17.8649 73.3131 18.0962 73.0171 18.2515C72.7211 18.4068 72.3894 18.4804 72.0557 18.4649C71.8203 18.4895 71.5823 18.4643 71.3571 18.3909C71.1319 18.3176 70.9246 18.1976 70.7484 18.0389C70.5723 17.8802 70.4312 17.6862 70.3344 17.4695C70.2375 17.2527 70.187 17.018 70.186 16.7804ZM71.6336 10.2258C71.6526 10.4925 71.7716 10.7421 71.9666 10.9243C72.1616 11.1066 72.4182 11.2079 72.6846 11.2079C72.9511 11.2079 73.2077 11.1066 73.4027 10.9243C73.5977 10.7421 73.7167 10.4925 73.7357 10.2258H74.6261C74.5738 10.706 74.3466 11.1499 73.9882 11.4724C73.6298 11.7949 73.1654 11.9732 72.684 11.9732C72.2027 11.9732 71.7382 11.7949 71.3798 11.4724C71.0214 11.1499 70.7943 10.706 70.742 10.2258H71.6336ZM73.7916 16.2994V15.8289L72.4219 15.9168C71.6494 15.9686 71.2991 16.2323 71.2991 16.7285C71.2991 17.2351 71.737 17.5299 72.3392 17.5299C72.5156 17.5478 72.6939 17.53 72.8633 17.4773C73.0327 17.4247 73.1898 17.3384 73.3254 17.2236C73.4609 17.1088 73.572 16.9679 73.6521 16.8091C73.7322 16.6503 73.7796 16.477 73.7916 16.2994V16.2994Z"
        fill="white"
      />
      <path
        d="M76.6272 12.7436H77.6928V13.6066H77.7755C77.8948 13.307 78.1057 13.0531 78.3778 12.8812C78.6499 12.7094 78.9692 12.6285 79.29 12.6502C79.4558 12.6479 79.6214 12.6635 79.7839 12.6966V13.7928C79.5807 13.7493 79.3737 13.7268 79.1659 13.7257C78.9834 13.7092 78.7994 13.7313 78.6258 13.7904C78.4522 13.8496 78.2929 13.9445 78.1581 14.0691C78.0232 14.1938 77.9158 14.3453 77.8428 14.514C77.7698 14.6828 77.7328 14.865 77.7342 15.0489V18.3723H76.6272L76.6272 12.7436Z"
        fill="white"
      />
      <path
        d="M84.536 14.5831C84.4654 14.2912 84.293 14.0343 84.05 13.859C83.807 13.6837 83.5094 13.6014 83.2112 13.6272C82.2843 13.6272 81.7174 14.3401 81.7174 15.5395C81.7174 16.7596 82.2892 17.4883 83.2112 17.4883C83.5065 17.5227 83.8041 17.4476 84.048 17.2772C84.292 17.1068 84.4655 16.8528 84.536 16.563H85.6125C85.5413 17.133 85.251 17.6525 84.8036 18.0108C84.3561 18.369 83.7869 18.5377 83.2173 18.4808C82.8422 18.4927 82.4691 18.4222 82.124 18.2743C81.7789 18.1264 81.4701 17.9046 81.2193 17.6245C80.9685 17.3443 80.7818 17.0126 80.6721 16.6524C80.5624 16.2923 80.5324 15.9125 80.5843 15.5395C80.535 15.1693 80.5669 14.7928 80.6777 14.4362C80.7884 14.0796 80.9754 13.7516 81.2255 13.475C81.4757 13.1984 81.7829 12.9799 82.1259 12.8348C82.4689 12.6897 82.8393 12.6215 83.2112 12.6349C83.7855 12.5818 84.3577 12.7557 84.8062 13.1195C85.2547 13.4834 85.5439 14.0084 85.6125 14.5831H84.536Z"
        fill="white"
      />
      <path
        d="M86.7109 16.7804C86.7109 15.7672 87.4627 15.1831 88.7972 15.1001L90.3165 15.0122V14.5264C90.3165 13.9319 89.9248 13.5962 89.1682 13.5962C88.5502 13.5962 88.122 13.8239 87.9992 14.2218H86.9275C87.0406 13.255 87.9469 12.6349 89.2193 12.6349C90.6255 12.6349 91.4186 13.3374 91.4186 14.5264V18.3722H90.353V17.5812H90.2654C90.0877 17.8649 89.838 18.0962 89.542 18.2515C89.246 18.4068 88.9143 18.4804 88.5806 18.4649C88.3452 18.4895 88.1072 18.4643 87.882 18.3909C87.6568 18.3175 87.4495 18.1976 87.2733 18.0389C87.0972 17.8802 86.9561 17.6862 86.8593 17.4695C86.7624 17.2527 86.7119 17.018 86.7109 16.7804ZM90.3165 16.2994V15.8289L88.9468 15.9167C88.1743 15.9686 87.824 16.2323 87.824 16.7285C87.824 17.2351 88.2619 17.5299 88.8641 17.5299C89.0405 17.5478 89.2188 17.5299 89.3882 17.4773C89.5576 17.4247 89.7147 17.3384 89.8503 17.2236C89.9858 17.1088 90.0969 16.9678 90.177 16.8091C90.2571 16.6503 90.3045 16.477 90.3165 16.2994Z"
        fill="white"
      />
      <path
        d="M94.6507 13.7048V16.5991C94.6507 17.1887 94.8928 17.4469 95.4439 17.4469C95.5849 17.4464 95.7259 17.4379 95.866 17.4213V18.3466C95.6672 18.3823 95.4658 18.4013 95.2638 18.4033C95.1811 18.4033 95.0984 18.4033 95.0218 18.3978L94.7845 19.0027C95.4645 19.0186 95.8562 19.3335 95.8562 19.8761C95.8562 20.4865 95.377 20.8844 94.5583 20.8844C94.3029 20.8892 94.048 20.8596 93.8004 20.7965V20.1764C94.0033 20.2224 94.2104 20.2465 94.4184 20.2484C94.8101 20.2484 95.0157 20.1294 95.0157 19.9023C95.0157 19.6802 94.8052 19.5868 94.2846 19.5868H93.9805V19.0857L94.3211 18.2691C93.7749 18.067 93.5425 17.6331 93.5425 16.8835V13.7048H92.6521V12.7691H93.5425V11.3422H94.6507V12.7692H95.866V13.7048H94.6507Z"
        fill="white"
      />
      <path
        d="M97.1822 11.0791C97.1736 10.9352 97.2083 10.7921 97.2818 10.6682C97.3553 10.5444 97.4641 10.4455 97.5942 10.3844C97.7243 10.3234 97.8697 10.3029 98.0115 10.3257C98.1533 10.3485 98.2851 10.4135 98.3896 10.5123C98.4942 10.6111 98.5668 10.7391 98.598 10.8798C98.6293 11.0205 98.6177 11.1674 98.5648 11.3014C98.5119 11.4353 98.4201 11.5503 98.3014 11.6314C98.1826 11.7124 98.0423 11.7558 97.8987 11.756C97.8069 11.7606 97.7151 11.7467 97.6288 11.7149C97.5425 11.683 97.4635 11.634 97.3966 11.5708C97.3297 11.5076 97.2762 11.4314 97.2393 11.3469C97.2025 11.2624 97.183 11.1713 97.1822 11.0791ZM97.3464 12.7435H98.4497V18.3722H97.3464V12.7435Z"
        fill="white"
      />
      <path
        d="M103 15.5554C103 13.7769 103.912 12.6502 105.329 12.6502C105.679 12.634 106.027 12.7182 106.332 12.8931C106.636 13.0679 106.885 13.3262 107.049 13.6377H107.132V10.5463H108.239V18.3722H107.178V17.4829H107.09C106.914 17.7923 106.656 18.0473 106.346 18.2204C106.035 18.3935 105.684 18.4781 105.329 18.465C103.902 18.465 103 17.3383 103 15.5554ZM104.144 15.5554C104.144 16.7493 104.705 17.4677 105.643 17.4677C106.576 17.4677 107.152 16.7389 107.152 15.5603C107.152 14.3872 106.57 13.6481 105.643 13.6481C104.711 13.6481 104.144 14.3714 104.144 15.5554Z"
        fill="white"
      />
      <path
        d="M114.798 16.8524C114.647 17.3668 114.321 17.8118 113.877 18.1095C113.433 18.4072 112.898 18.5386 112.367 18.4808C111.998 18.4906 111.63 18.4196 111.291 18.2727C110.952 18.1258 110.648 17.9065 110.401 17.63C110.155 17.3536 109.971 17.0267 109.863 16.6719C109.755 16.3171 109.726 15.943 109.776 15.5755C109.727 15.2069 109.757 14.832 109.865 14.4762C109.973 14.1203 110.155 13.7919 110.401 13.513C110.646 13.2342 110.948 13.0115 111.286 12.86C111.625 12.7085 111.992 12.6317 112.362 12.6349C113.923 12.6349 114.865 13.7049 114.865 15.4724V15.86H110.904V15.9222C110.886 16.1288 110.912 16.3367 110.98 16.5326C111.047 16.7286 111.155 16.9082 111.295 17.06C111.436 17.2119 111.607 17.3325 111.796 17.4143C111.986 17.496 112.191 17.537 112.398 17.5347C112.662 17.5666 112.931 17.5188 113.168 17.3973C113.406 17.2758 113.602 17.0861 113.732 16.8524L114.798 16.8524ZM110.904 15.0384H113.737C113.751 14.8495 113.725 14.6598 113.662 14.4814C113.598 14.303 113.498 14.1399 113.368 14.0026C113.238 13.8652 113.081 13.7567 112.907 13.684C112.732 13.6113 112.545 13.576 112.356 13.5803C112.165 13.5779 111.975 13.614 111.797 13.6864C111.62 13.7588 111.459 13.8662 111.324 14.002C111.188 14.1379 111.081 14.2996 111.009 14.4776C110.937 14.6556 110.901 14.8463 110.904 15.0384H110.904Z"
        fill="white"
      />
      <path
        d="M124.632 15.5554C124.632 17.3437 123.73 18.4649 122.313 18.4649C121.966 18.4886 121.619 18.4122 121.313 18.2447C121.008 18.0772 120.756 17.8256 120.588 17.5195H120.501V20.2435H119.394V12.7435H120.459V13.6737H120.542C120.713 13.3567 120.968 13.0934 121.279 12.9128C121.59 12.7322 121.944 12.6413 122.303 12.6501C123.73 12.6501 124.632 13.7664 124.632 15.5554ZM123.493 15.5554C123.493 14.3664 122.932 13.648 121.994 13.648C121.063 13.648 120.48 14.3817 120.48 15.5603C120.48 16.7334 121.063 17.4676 121.989 17.4676C122.932 17.4676 123.493 16.7492 123.493 15.5554Z"
        fill="white"
      />
      <path
        d="M130.86 16.8524C130.71 17.3668 130.384 17.8118 129.939 18.1095C129.495 18.4072 128.961 18.5386 128.429 18.4808C128.06 18.4906 127.693 18.4196 127.353 18.2727C127.014 18.1258 126.71 17.9065 126.464 17.63C126.217 17.3536 126.034 17.0267 125.926 16.6719C125.818 16.3171 125.788 15.943 125.838 15.5755C125.789 15.2069 125.819 14.832 125.927 14.4762C126.035 14.1203 126.218 13.7919 126.463 13.513C126.708 13.2342 127.01 13.0115 127.349 12.86C127.687 12.7085 128.054 12.6317 128.425 12.6349C129.985 12.6349 130.927 13.7049 130.927 15.4724V15.86H126.966V15.9222C126.949 16.1288 126.975 16.3367 127.042 16.5326C127.109 16.7286 127.217 16.9082 127.358 17.06C127.498 17.2119 127.669 17.3325 127.859 17.4143C128.049 17.496 128.253 17.537 128.46 17.5347C128.725 17.5666 128.993 17.5188 129.231 17.3973C129.468 17.2758 129.664 17.0861 129.794 16.8524L130.86 16.8524ZM126.966 15.0384H129.799C129.813 14.8495 129.788 14.6598 129.724 14.4814C129.661 14.303 129.561 14.1399 129.431 14.0026C129.301 13.8652 129.143 13.7567 128.969 13.684C128.795 13.6113 128.607 13.576 128.418 13.5803C128.227 13.5779 128.037 13.614 127.86 13.6864C127.682 13.7588 127.521 13.8662 127.386 14.0021C127.25 14.1379 127.144 14.2997 127.072 14.4776C126.999 14.6556 126.964 14.8463 126.966 15.0384H126.966Z"
        fill="white"
      />
    </g>
    <defs>
      <clipPath id="ios">
        <rect width="149.06" height="50" fill="white" />
      </clipPath>
    </defs>
  </svg>