<svg width="1358" height="1176" viewBox="0 0 1358 1176" fill="none" xmlns="http://www.w3.org/2000/svg">
<g clip-path="url(#clip0)">
<path d="M0 392H4V396H0V392Z" fill="#E5E7EB"/>
<path d="M20 392H24V396H20V392Z" fill="#E5E7EB"/>
<path d="M40 392H44V396H40V392Z" fill="#E5E7EB"/>
<path d="M60 392H64V396H60V392Z" fill="#E5E7EB"/>
<path d="M80 392H84V396H80V392Z" fill="#E5E7EB"/>
<path d="M100 392H104V396H100V392Z" fill="#E5E7EB"/>
<path d="M120 392H124V396H120V392Z" fill="#E5E7EB"/>
<path d="M140 392H144V396H140V392Z" fill="#E5E7EB"/>
<path d="M160 392H164V396H160V392Z" fill="#E5E7EB"/>
<path d="M180 392H184V396H180V392Z" fill="#E5E7EB"/>
<path d="M200 392H204V396H200V392Z" fill="#E5E7EB"/>
<path d="M220 392H224V396H220V392Z" fill="#E5E7EB"/>
<path d="M240 392H244V396H240V392Z" fill="#E5E7EB"/>
<path d="M260 392H264V396H260V392Z" fill="#E5E7EB"/>
<path d="M280 392H284V396H280V392Z" fill="#E5E7EB"/>
<path d="M300 392H304V396H300V392Z" fill="#E5E7EB"/>
<path d="M320 392H324V396H320V392Z" fill="#E5E7EB"/>
<path d="M340 392H344V396H340V392Z" fill="#E5E7EB"/>
<path d="M360 392H364V396H360V392Z" fill="#E5E7EB"/>
<path d="M380 392H384V396H380V392Z" fill="#E5E7EB"/>
<path d="M400 392H404V396H400V392Z" fill="#E5E7EB"/>
<path d="M0 412H4V416H0V412Z" fill="#E5E7EB"/>
<path d="M20 412H24V416H20V412Z" fill="#E5E7EB"/>
<path d="M40 412H44V416H40V412Z" fill="#E5E7EB"/>
<path d="M60 412H64V416H60V412Z" fill="#E5E7EB"/>
<path d="M80 412H84V416H80V412Z" fill="#E5E7EB"/>
<path d="M100 412H104V416H100V412Z" fill="#E5E7EB"/>
<path d="M120 412H124V416H120V412Z" fill="#E5E7EB"/>
<path d="M140 412H144V416H140V412Z" fill="#E5E7EB"/>
<path d="M160 412H164V416H160V412Z" fill="#E5E7EB"/>
<path d="M180 412H184V416H180V412Z" fill="#E5E7EB"/>
<path d="M200 412H204V416H200V412Z" fill="#E5E7EB"/>
<path d="M220 412H224V416H220V412Z" fill="#E5E7EB"/>
<path d="M240 412H244V416H240V412Z" fill="#E5E7EB"/>
<path d="M260 412H264V416H260V412Z" fill="#E5E7EB"/>
<path d="M280 412H284V416H280V412Z" fill="#E5E7EB"/>
<path d="M300 412H304V416H300V412Z" fill="#E5E7EB"/>
<path d="M320 412H324V416H320V412Z" fill="#E5E7EB"/>
<path d="M340 412H344V416H340V412Z" fill="#E5E7EB"/>
<path d="M360 412H364V416H360V412Z" fill="#E5E7EB"/>
<path d="M380 412H384V416H380V412Z" fill="#E5E7EB"/>
<path d="M400 412H404V416H400V412Z" fill="#E5E7EB"/>
<path d="M0 432H4V436H0V432Z" fill="#E5E7EB"/>
<path d="M20 432H24V436H20V432Z" fill="#E5E7EB"/>
<path d="M40 432H44V436H40V432Z" fill="#E5E7EB"/>
<path d="M60 432H64V436H60V432Z" fill="#E5E7EB"/>
<path d="M80 432H84V436H80V432Z" fill="#E5E7EB"/>
<path d="M100 432H104V436H100V432Z" fill="#E5E7EB"/>
<path d="M120 432H124V436H120V432Z" fill="#E5E7EB"/>
<path d="M140 432H144V436H140V432Z" fill="#E5E7EB"/>
<path d="M160 432H164V436H160V432Z" fill="#E5E7EB"/>
<path d="M180 432H184V436H180V432Z" fill="#E5E7EB"/>
<path d="M200 432H204V436H200V432Z" fill="#E5E7EB"/>
<path d="M220 432H224V436H220V432Z" fill="#E5E7EB"/>
<path d="M240 432H244V436H240V432Z" fill="#E5E7EB"/>
<path d="M260 432H264V436H260V432Z" fill="#E5E7EB"/>
<path d="M280 432H284V436H280V432Z" fill="#E5E7EB"/>
<path d="M300 432H304V436H300V432Z" fill="#E5E7EB"/>
<path d="M320 432H324V436H320V432Z" fill="#E5E7EB"/>
<path d="M340 432H344V436H340V432Z" fill="#E5E7EB"/>
<path d="M360 432H364V436H360V432Z" fill="#E5E7EB"/>
<path d="M380 432H384V436H380V432Z" fill="#E5E7EB"/>
<path d="M400 432H404V436H400V432Z" fill="#E5E7EB"/>
<path d="M0 452H4V456H0V452Z" fill="#E5E7EB"/>
<path d="M20 452H24V456H20V452Z" fill="#E5E7EB"/>
<path d="M40 452H44V456H40V452Z" fill="#E5E7EB"/>
<path d="M60 452H64V456H60V452Z" fill="#E5E7EB"/>
<path d="M80 452H84V456H80V452Z" fill="#E5E7EB"/>
<path d="M100 452H104V456H100V452Z" fill="#E5E7EB"/>
<path d="M120 452H124V456H120V452Z" fill="#E5E7EB"/>
<path d="M140 452H144V456H140V452Z" fill="#E5E7EB"/>
<path d="M160 452H164V456H160V452Z" fill="#E5E7EB"/>
<path d="M180 452H184V456H180V452Z" fill="#E5E7EB"/>
<path d="M200 452H204V456H200V452Z" fill="#E5E7EB"/>
<path d="M220 452H224V456H220V452Z" fill="#E5E7EB"/>
<path d="M240 452H244V456H240V452Z" fill="#E5E7EB"/>
<path d="M260 452H264V456H260V452Z" fill="#E5E7EB"/>
<path d="M280 452H284V456H280V452Z" fill="#E5E7EB"/>
<path d="M300 452H304V456H300V452Z" fill="#E5E7EB"/>
<path d="M320 452H324V456H320V452Z" fill="#E5E7EB"/>
<path d="M340 452H344V456H340V452Z" fill="#E5E7EB"/>
<path d="M360 452H364V456H360V452Z" fill="#E5E7EB"/>
<path d="M380 452H384V456H380V452Z" fill="#E5E7EB"/>
<path d="M400 452H404V456H400V452Z" fill="#E5E7EB"/>
<path d="M0 472H4V476H0V472Z" fill="#E5E7EB"/>
<path d="M20 472H24V476H20V472Z" fill="#E5E7EB"/>
<path d="M40 472H44V476H40V472Z" fill="#E5E7EB"/>
<path d="M60 472H64V476H60V472Z" fill="#E5E7EB"/>
<path d="M80 472H84V476H80V472Z" fill="#E5E7EB"/>
<path d="M100 472H104V476H100V472Z" fill="#E5E7EB"/>
<path d="M120 472H124V476H120V472Z" fill="#E5E7EB"/>
<path d="M140 472H144V476H140V472Z" fill="#E5E7EB"/>
<path d="M160 472H164V476H160V472Z" fill="#E5E7EB"/>
<path d="M180 472H184V476H180V472Z" fill="#E5E7EB"/>
<path d="M200 472H204V476H200V472Z" fill="#E5E7EB"/>
<path d="M220 472H224V476H220V472Z" fill="#E5E7EB"/>
<path d="M240 472H244V476H240V472Z" fill="#E5E7EB"/>
<path d="M260 472H264V476H260V472Z" fill="#E5E7EB"/>
<path d="M280 472H284V476H280V472Z" fill="#E5E7EB"/>
<path d="M300 472H304V476H300V472Z" fill="#E5E7EB"/>
<path d="M320 472H324V476H320V472Z" fill="#E5E7EB"/>
<path d="M340 472H344V476H340V472Z" fill="#E5E7EB"/>
<path d="M360 472H364V476H360V472Z" fill="#E5E7EB"/>
<path d="M380 472H384V476H380V472Z" fill="#E5E7EB"/>
<path d="M400 472H404V476H400V472Z" fill="#E5E7EB"/>
<path d="M0 492H4V496H0V492Z" fill="#E5E7EB"/>
<path d="M20 492H24V496H20V492Z" fill="#E5E7EB"/>
<path d="M40 492H44V496H40V492Z" fill="#E5E7EB"/>
<path d="M60 492H64V496H60V492Z" fill="#E5E7EB"/>
<path d="M80 492H84V496H80V492Z" fill="#E5E7EB"/>
<path d="M100 492H104V496H100V492Z" fill="#E5E7EB"/>
<path d="M120 492H124V496H120V492Z" fill="#E5E7EB"/>
<path d="M140 492H144V496H140V492Z" fill="#E5E7EB"/>
<path d="M160 492H164V496H160V492Z" fill="#E5E7EB"/>
<path d="M180 492H184V496H180V492Z" fill="#E5E7EB"/>
<path d="M200 492H204V496H200V492Z" fill="#E5E7EB"/>
<path d="M220 492H224V496H220V492Z" fill="#E5E7EB"/>
<path d="M240 492H244V496H240V492Z" fill="#E5E7EB"/>
<path d="M260 492H264V496H260V492Z" fill="#E5E7EB"/>
<path d="M280 492H284V496H280V492Z" fill="#E5E7EB"/>
<path d="M300 492H304V496H300V492Z" fill="#E5E7EB"/>
<path d="M320 492H324V496H320V492Z" fill="#E5E7EB"/>
<path d="M340 492H344V496H340V492Z" fill="#E5E7EB"/>
<path d="M360 492H364V496H360V492Z" fill="#E5E7EB"/>
<path d="M380 492H384V496H380V492Z" fill="#E5E7EB"/>
<path d="M400 492H404V496H400V492Z" fill="#E5E7EB"/>
<path d="M0 512H4V516H0V512Z" fill="#E5E7EB"/>
<path d="M20 512H24V516H20V512Z" fill="#E5E7EB"/>
<path d="M40 512H44V516H40V512Z" fill="#E5E7EB"/>
<path d="M60 512H64V516H60V512Z" fill="#E5E7EB"/>
<path d="M80 512H84V516H80V512Z" fill="#E5E7EB"/>
<path d="M100 512H104V516H100V512Z" fill="#E5E7EB"/>
<path d="M120 512H124V516H120V512Z" fill="#E5E7EB"/>
<path d="M140 512H144V516H140V512Z" fill="#E5E7EB"/>
<path d="M160 512H164V516H160V512Z" fill="#E5E7EB"/>
<path d="M180 512H184V516H180V512Z" fill="#E5E7EB"/>
<path d="M200 512H204V516H200V512Z" fill="#E5E7EB"/>
<path d="M220 512H224V516H220V512Z" fill="#E5E7EB"/>
<path d="M240 512H244V516H240V512Z" fill="#E5E7EB"/>
<path d="M260 512H264V516H260V512Z" fill="#E5E7EB"/>
<path d="M280 512H284V516H280V512Z" fill="#E5E7EB"/>
<path d="M300 512H304V516H300V512Z" fill="#E5E7EB"/>
<path d="M320 512H324V516H320V512Z" fill="#E5E7EB"/>
<path d="M340 512H344V516H340V512Z" fill="#E5E7EB"/>
<path d="M360 512H364V516H360V512Z" fill="#E5E7EB"/>
<path d="M380 512H384V516H380V512Z" fill="#E5E7EB"/>
<path d="M400 512H404V516H400V512Z" fill="#E5E7EB"/>
<path d="M0 532H4V536H0V532Z" fill="#E5E7EB"/>
<path d="M20 532H24V536H20V532Z" fill="#E5E7EB"/>
<path d="M40 532H44V536H40V532Z" fill="#E5E7EB"/>
<path d="M60 532H64V536H60V532Z" fill="#E5E7EB"/>
<path d="M80 532H84V536H80V532Z" fill="#E5E7EB"/>
<path d="M100 532H104V536H100V532Z" fill="#E5E7EB"/>
<path d="M120 532H124V536H120V532Z" fill="#E5E7EB"/>
<path d="M140 532H144V536H140V532Z" fill="#E5E7EB"/>
<path d="M160 532H164V536H160V532Z" fill="#E5E7EB"/>
<path d="M180 532H184V536H180V532Z" fill="#E5E7EB"/>
<path d="M200 532H204V536H200V532Z" fill="#E5E7EB"/>
<path d="M220 532H224V536H220V532Z" fill="#E5E7EB"/>
<path d="M240 532H244V536H240V532Z" fill="#E5E7EB"/>
<path d="M260 532H264V536H260V532Z" fill="#E5E7EB"/>
<path d="M280 532H284V536H280V532Z" fill="#E5E7EB"/>
<path d="M300 532H304V536H300V532Z" fill="#E5E7EB"/>
<path d="M320 532H324V536H320V532Z" fill="#E5E7EB"/>
<path d="M340 532H344V536H340V532Z" fill="#E5E7EB"/>
<path d="M360 532H364V536H360V532Z" fill="#E5E7EB"/>
<path d="M380 532H384V536H380V532Z" fill="#E5E7EB"/>
<path d="M400 532H404V536H400V532Z" fill="#E5E7EB"/>
<path d="M0 552H4V556H0V552Z" fill="#E5E7EB"/>
<path d="M20 552H24V556H20V552Z" fill="#E5E7EB"/>
<path d="M40 552H44V556H40V552Z" fill="#E5E7EB"/>
<path d="M60 552H64V556H60V552Z" fill="#E5E7EB"/>
<path d="M80 552H84V556H80V552Z" fill="#E5E7EB"/>
<path d="M100 552H104V556H100V552Z" fill="#E5E7EB"/>
<path d="M120 552H124V556H120V552Z" fill="#E5E7EB"/>
<path d="M140 552H144V556H140V552Z" fill="#E5E7EB"/>
<path d="M160 552H164V556H160V552Z" fill="#E5E7EB"/>
<path d="M180 552H184V556H180V552Z" fill="#E5E7EB"/>
<path d="M200 552H204V556H200V552Z" fill="#E5E7EB"/>
<path d="M220 552H224V556H220V552Z" fill="#E5E7EB"/>
<path d="M240 552H244V556H240V552Z" fill="#E5E7EB"/>
<path d="M260 552H264V556H260V552Z" fill="#E5E7EB"/>
<path d="M280 552H284V556H280V552Z" fill="#E5E7EB"/>
<path d="M300 552H304V556H300V552Z" fill="#E5E7EB"/>
<path d="M320 552H324V556H320V552Z" fill="#E5E7EB"/>
<path d="M340 552H344V556H340V552Z" fill="#E5E7EB"/>
<path d="M360 552H364V556H360V552Z" fill="#E5E7EB"/>
<path d="M380 552H384V556H380V552Z" fill="#E5E7EB"/>
<path d="M400 552H404V556H400V552Z" fill="#E5E7EB"/>
<path d="M0 572H4V576H0V572Z" fill="#E5E7EB"/>
<path d="M20 572H24V576H20V572Z" fill="#E5E7EB"/>
<path d="M40 572H44V576H40V572Z" fill="#E5E7EB"/>
<path d="M60 572H64V576H60V572Z" fill="#E5E7EB"/>
<path d="M80 572H84V576H80V572Z" fill="#E5E7EB"/>
<path d="M100 572H104V576H100V572Z" fill="#E5E7EB"/>
<path d="M120 572H124V576H120V572Z" fill="#E5E7EB"/>
<path d="M140 572H144V576H140V572Z" fill="#E5E7EB"/>
<path d="M160 572H164V576H160V572Z" fill="#E5E7EB"/>
<path d="M180 572H184V576H180V572Z" fill="#E5E7EB"/>
<path d="M200 572H204V576H200V572Z" fill="#E5E7EB"/>
<path d="M220 572H224V576H220V572Z" fill="#E5E7EB"/>
<path d="M240 572H244V576H240V572Z" fill="#E5E7EB"/>
<path d="M260 572H264V576H260V572Z" fill="#E5E7EB"/>
<path d="M280 572H284V576H280V572Z" fill="#E5E7EB"/>
<path d="M300 572H304V576H300V572Z" fill="#E5E7EB"/>
<path d="M320 572H324V576H320V572Z" fill="#E5E7EB"/>
<path d="M340 572H344V576H340V572Z" fill="#E5E7EB"/>
<path d="M360 572H364V576H360V572Z" fill="#E5E7EB"/>
<path d="M380 572H384V576H380V572Z" fill="#E5E7EB"/>
<path d="M400 572H404V576H400V572Z" fill="#E5E7EB"/>
<path d="M0 592H4V596H0V592Z" fill="#E5E7EB"/>
<path d="M20 592H24V596H20V592Z" fill="#E5E7EB"/>
<path d="M40 592H44V596H40V592Z" fill="#E5E7EB"/>
<path d="M60 592H64V596H60V592Z" fill="#E5E7EB"/>
<path d="M80 592H84V596H80V592Z" fill="#E5E7EB"/>
<path d="M100 592H104V596H100V592Z" fill="#E5E7EB"/>
<path d="M120 592H124V596H120V592Z" fill="#E5E7EB"/>
<path d="M140 592H144V596H140V592Z" fill="#E5E7EB"/>
<path d="M160 592H164V596H160V592Z" fill="#E5E7EB"/>
<path d="M180 592H184V596H180V592Z" fill="#E5E7EB"/>
<path d="M200 592H204V596H200V592Z" fill="#E5E7EB"/>
<path d="M220 592H224V596H220V592Z" fill="#E5E7EB"/>
<path d="M240 592H244V596H240V592Z" fill="#E5E7EB"/>
<path d="M260 592H264V596H260V592Z" fill="#E5E7EB"/>
<path d="M280 592H284V596H280V592Z" fill="#E5E7EB"/>
<path d="M300 592H304V596H300V592Z" fill="#E5E7EB"/>
<path d="M320 592H324V596H320V592Z" fill="#E5E7EB"/>
<path d="M340 592H344V596H340V592Z" fill="#E5E7EB"/>
<path d="M360 592H364V596H360V592Z" fill="#E5E7EB"/>
<path d="M380 592H384V596H380V592Z" fill="#E5E7EB"/>
<path d="M400 592H404V596H400V592Z" fill="#E5E7EB"/>
<path d="M0 612H4V616H0V612Z" fill="#E5E7EB"/>
<path d="M20 612H24V616H20V612Z" fill="#E5E7EB"/>
<path d="M40 612H44V616H40V612Z" fill="#E5E7EB"/>
<path d="M60 612H64V616H60V612Z" fill="#E5E7EB"/>
<path d="M80 612H84V616H80V612Z" fill="#E5E7EB"/>
<path d="M100 612H104V616H100V612Z" fill="#E5E7EB"/>
<path d="M120 612H124V616H120V612Z" fill="#E5E7EB"/>
<path d="M140 612H144V616H140V612Z" fill="#E5E7EB"/>
<path d="M160 612H164V616H160V612Z" fill="#E5E7EB"/>
<path d="M180 612H184V616H180V612Z" fill="#E5E7EB"/>
<path d="M200 612H204V616H200V612Z" fill="#E5E7EB"/>
<path d="M220 612H224V616H220V612Z" fill="#E5E7EB"/>
<path d="M240 612H244V616H240V612Z" fill="#E5E7EB"/>
<path d="M260 612H264V616H260V612Z" fill="#E5E7EB"/>
<path d="M280 612H284V616H280V612Z" fill="#E5E7EB"/>
<path d="M300 612H304V616H300V612Z" fill="#E5E7EB"/>
<path d="M320 612H324V616H320V612Z" fill="#E5E7EB"/>
<path d="M340 612H344V616H340V612Z" fill="#E5E7EB"/>
<path d="M360 612H364V616H360V612Z" fill="#E5E7EB"/>
<path d="M380 612H384V616H380V612Z" fill="#E5E7EB"/>
<path d="M400 612H404V616H400V612Z" fill="#E5E7EB"/>
<path d="M0 632H4V636H0V632Z" fill="#E5E7EB"/>
<path d="M20 632H24V636H20V632Z" fill="#E5E7EB"/>
<path d="M40 632H44V636H40V632Z" fill="#E5E7EB"/>
<path d="M60 632H64V636H60V632Z" fill="#E5E7EB"/>
<path d="M80 632H84V636H80V632Z" fill="#E5E7EB"/>
<path d="M100 632H104V636H100V632Z" fill="#E5E7EB"/>
<path d="M120 632H124V636H120V632Z" fill="#E5E7EB"/>
<path d="M140 632H144V636H140V632Z" fill="#E5E7EB"/>
<path d="M160 632H164V636H160V632Z" fill="#E5E7EB"/>
<path d="M180 632H184V636H180V632Z" fill="#E5E7EB"/>
<path d="M200 632H204V636H200V632Z" fill="#E5E7EB"/>
<path d="M220 632H224V636H220V632Z" fill="#E5E7EB"/>
<path d="M240 632H244V636H240V632Z" fill="#E5E7EB"/>
<path d="M260 632H264V636H260V632Z" fill="#E5E7EB"/>
<path d="M280 632H284V636H280V632Z" fill="#E5E7EB"/>
<path d="M300 632H304V636H300V632Z" fill="#E5E7EB"/>
<path d="M320 632H324V636H320V632Z" fill="#E5E7EB"/>
<path d="M340 632H344V636H340V632Z" fill="#E5E7EB"/>
<path d="M360 632H364V636H360V632Z" fill="#E5E7EB"/>
<path d="M380 632H384V636H380V632Z" fill="#E5E7EB"/>
<path d="M400 632H404V636H400V632Z" fill="#E5E7EB"/>
<path d="M0 652H4V656H0V652Z" fill="#E5E7EB"/>
<path d="M20 652H24V656H20V652Z" fill="#E5E7EB"/>
<path d="M40 652H44V656H40V652Z" fill="#E5E7EB"/>
<path d="M60 652H64V656H60V652Z" fill="#E5E7EB"/>
<path d="M80 652H84V656H80V652Z" fill="#E5E7EB"/>
<path d="M100 652H104V656H100V652Z" fill="#E5E7EB"/>
<path d="M120 652H124V656H120V652Z" fill="#E5E7EB"/>
<path d="M140 652H144V656H140V652Z" fill="#E5E7EB"/>
<path d="M160 652H164V656H160V652Z" fill="#E5E7EB"/>
<path d="M180 652H184V656H180V652Z" fill="#E5E7EB"/>
<path d="M200 652H204V656H200V652Z" fill="#E5E7EB"/>
<path d="M220 652H224V656H220V652Z" fill="#E5E7EB"/>
<path d="M240 652H244V656H240V652Z" fill="#E5E7EB"/>
<path d="M260 652H264V656H260V652Z" fill="#E5E7EB"/>
<path d="M280 652H284V656H280V652Z" fill="#E5E7EB"/>
<path d="M300 652H304V656H300V652Z" fill="#E5E7EB"/>
<path d="M320 652H324V656H320V652Z" fill="#E5E7EB"/>
<path d="M340 652H344V656H340V652Z" fill="#E5E7EB"/>
<path d="M360 652H364V656H360V652Z" fill="#E5E7EB"/>
<path d="M380 652H384V656H380V652Z" fill="#E5E7EB"/>
<path d="M400 652H404V656H400V652Z" fill="#E5E7EB"/>
<path d="M0 672H4V676H0V672Z" fill="#E5E7EB"/>
<path d="M20 672H24V676H20V672Z" fill="#E5E7EB"/>
<path d="M40 672H44V676H40V672Z" fill="#E5E7EB"/>
<path d="M60 672H64V676H60V672Z" fill="#E5E7EB"/>
<path d="M80 672H84V676H80V672Z" fill="#E5E7EB"/>
<path d="M100 672H104V676H100V672Z" fill="#E5E7EB"/>
<path d="M120 672H124V676H120V672Z" fill="#E5E7EB"/>
<path d="M140 672H144V676H140V672Z" fill="#E5E7EB"/>
<path d="M160 672H164V676H160V672Z" fill="#E5E7EB"/>
<path d="M180 672H184V676H180V672Z" fill="#E5E7EB"/>
<path d="M200 672H204V676H200V672Z" fill="#E5E7EB"/>
<path d="M220 672H224V676H220V672Z" fill="#E5E7EB"/>
<path d="M240 672H244V676H240V672Z" fill="#E5E7EB"/>
<path d="M260 672H264V676H260V672Z" fill="#E5E7EB"/>
<path d="M280 672H284V676H280V672Z" fill="#E5E7EB"/>
<path d="M300 672H304V676H300V672Z" fill="#E5E7EB"/>
<path d="M320 672H324V676H320V672Z" fill="#E5E7EB"/>
<path d="M340 672H344V676H340V672Z" fill="#E5E7EB"/>
<path d="M360 672H364V676H360V672Z" fill="#E5E7EB"/>
<path d="M380 672H384V676H380V672Z" fill="#E5E7EB"/>
<path d="M400 672H404V676H400V672Z" fill="#E5E7EB"/>
<path d="M0 692H4V696H0V692Z" fill="#E5E7EB"/>
<path d="M20 692H24V696H20V692Z" fill="#E5E7EB"/>
<path d="M40 692H44V696H40V692Z" fill="#E5E7EB"/>
<path d="M60 692H64V696H60V692Z" fill="#E5E7EB"/>
<path d="M80 692H84V696H80V692Z" fill="#E5E7EB"/>
<path d="M100 692H104V696H100V692Z" fill="#E5E7EB"/>
<path d="M120 692H124V696H120V692Z" fill="#E5E7EB"/>
<path d="M140 692H144V696H140V692Z" fill="#E5E7EB"/>
<path d="M160 692H164V696H160V692Z" fill="#E5E7EB"/>
<path d="M180 692H184V696H180V692Z" fill="#E5E7EB"/>
<path d="M200 692H204V696H200V692Z" fill="#E5E7EB"/>
<path d="M220 692H224V696H220V692Z" fill="#E5E7EB"/>
<path d="M240 692H244V696H240V692Z" fill="#E5E7EB"/>
<path d="M260 692H264V696H260V692Z" fill="#E5E7EB"/>
<path d="M280 692H284V696H280V692Z" fill="#E5E7EB"/>
<path d="M300 692H304V696H300V692Z" fill="#E5E7EB"/>
<path d="M320 692H324V696H320V692Z" fill="#E5E7EB"/>
<path d="M340 692H344V696H340V692Z" fill="#E5E7EB"/>
<path d="M360 692H364V696H360V692Z" fill="#E5E7EB"/>
<path d="M380 692H384V696H380V692Z" fill="#E5E7EB"/>
<path d="M400 692H404V696H400V692Z" fill="#E5E7EB"/>
<path d="M0 712H4V716H0V712Z" fill="#E5E7EB"/>
<path d="M20 712H24V716H20V712Z" fill="#E5E7EB"/>
<path d="M40 712H44V716H40V712Z" fill="#E5E7EB"/>
<path d="M60 712H64V716H60V712Z" fill="#E5E7EB"/>
<path d="M80 712H84V716H80V712Z" fill="#E5E7EB"/>
<path d="M100 712H104V716H100V712Z" fill="#E5E7EB"/>
<path d="M120 712H124V716H120V712Z" fill="#E5E7EB"/>
<path d="M140 712H144V716H140V712Z" fill="#E5E7EB"/>
<path d="M160 712H164V716H160V712Z" fill="#E5E7EB"/>
<path d="M180 712H184V716H180V712Z" fill="#E5E7EB"/>
<path d="M200 712H204V716H200V712Z" fill="#E5E7EB"/>
<path d="M220 712H224V716H220V712Z" fill="#E5E7EB"/>
<path d="M240 712H244V716H240V712Z" fill="#E5E7EB"/>
<path d="M260 712H264V716H260V712Z" fill="#E5E7EB"/>
<path d="M280 712H284V716H280V712Z" fill="#E5E7EB"/>
<path d="M300 712H304V716H300V712Z" fill="#E5E7EB"/>
<path d="M320 712H324V716H320V712Z" fill="#E5E7EB"/>
<path d="M340 712H344V716H340V712Z" fill="#E5E7EB"/>
<path d="M360 712H364V716H360V712Z" fill="#E5E7EB"/>
<path d="M380 712H384V716H380V712Z" fill="#E5E7EB"/>
<path d="M400 712H404V716H400V712Z" fill="#E5E7EB"/>
<path d="M0 732H4V736H0V732Z" fill="#E5E7EB"/>
<path d="M20 732H24V736H20V732Z" fill="#E5E7EB"/>
<path d="M40 732H44V736H40V732Z" fill="#E5E7EB"/>
<path d="M60 732H64V736H60V732Z" fill="#E5E7EB"/>
<path d="M80 732H84V736H80V732Z" fill="#E5E7EB"/>
<path d="M100 732H104V736H100V732Z" fill="#E5E7EB"/>
<path d="M120 732H124V736H120V732Z" fill="#E5E7EB"/>
<path d="M140 732H144V736H140V732Z" fill="#E5E7EB"/>
<path d="M160 732H164V736H160V732Z" fill="#E5E7EB"/>
<path d="M180 732H184V736H180V732Z" fill="#E5E7EB"/>
<path d="M200 732H204V736H200V732Z" fill="#E5E7EB"/>
<path d="M220 732H224V736H220V732Z" fill="#E5E7EB"/>
<path d="M240 732H244V736H240V732Z" fill="#E5E7EB"/>
<path d="M260 732H264V736H260V732Z" fill="#E5E7EB"/>
<path d="M280 732H284V736H280V732Z" fill="#E5E7EB"/>
<path d="M300 732H304V736H300V732Z" fill="#E5E7EB"/>
<path d="M320 732H324V736H320V732Z" fill="#E5E7EB"/>
<path d="M340 732H344V736H340V732Z" fill="#E5E7EB"/>
<path d="M360 732H364V736H360V732Z" fill="#E5E7EB"/>
<path d="M380 732H384V736H380V732Z" fill="#E5E7EB"/>
<path d="M400 732H404V736H400V732Z" fill="#E5E7EB"/>
<path d="M0 752H4V756H0V752Z" fill="#E5E7EB"/>
<path d="M20 752H24V756H20V752Z" fill="#E5E7EB"/>
<path d="M40 752H44V756H40V752Z" fill="#E5E7EB"/>
<path d="M60 752H64V756H60V752Z" fill="#E5E7EB"/>
<path d="M80 752H84V756H80V752Z" fill="#E5E7EB"/>
<path d="M100 752H104V756H100V752Z" fill="#E5E7EB"/>
<path d="M120 752H124V756H120V752Z" fill="#E5E7EB"/>
<path d="M140 752H144V756H140V752Z" fill="#E5E7EB"/>
<path d="M160 752H164V756H160V752Z" fill="#E5E7EB"/>
<path d="M180 752H184V756H180V752Z" fill="#E5E7EB"/>
<path d="M200 752H204V756H200V752Z" fill="#E5E7EB"/>
<path d="M220 752H224V756H220V752Z" fill="#E5E7EB"/>
<path d="M240 752H244V756H240V752Z" fill="#E5E7EB"/>
<path d="M260 752H264V756H260V752Z" fill="#E5E7EB"/>
<path d="M280 752H284V756H280V752Z" fill="#E5E7EB"/>
<path d="M300 752H304V756H300V752Z" fill="#E5E7EB"/>
<path d="M320 752H324V756H320V752Z" fill="#E5E7EB"/>
<path d="M340 752H344V756H340V752Z" fill="#E5E7EB"/>
<path d="M360 752H364V756H360V752Z" fill="#E5E7EB"/>
<path d="M380 752H384V756H380V752Z" fill="#E5E7EB"/>
<path d="M400 752H404V756H400V752Z" fill="#E5E7EB"/>
<path d="M0 772H4V776H0V772Z" fill="#E5E7EB"/>
<path d="M20 772H24V776H20V772Z" fill="#E5E7EB"/>
<path d="M40 772H44V776H40V772Z" fill="#E5E7EB"/>
<path d="M60 772H64V776H60V772Z" fill="#E5E7EB"/>
<path d="M80 772H84V776H80V772Z" fill="#E5E7EB"/>
<path d="M100 772H104V776H100V772Z" fill="#E5E7EB"/>
<path d="M120 772H124V776H120V772Z" fill="#E5E7EB"/>
<path d="M140 772H144V776H140V772Z" fill="#E5E7EB"/>
<path d="M160 772H164V776H160V772Z" fill="#E5E7EB"/>
<path d="M180 772H184V776H180V772Z" fill="#E5E7EB"/>
<path d="M200 772H204V776H200V772Z" fill="#E5E7EB"/>
<path d="M220 772H224V776H220V772Z" fill="#E5E7EB"/>
<path d="M240 772H244V776H240V772Z" fill="#E5E7EB"/>
<path d="M260 772H264V776H260V772Z" fill="#E5E7EB"/>
<path d="M280 772H284V776H280V772Z" fill="#E5E7EB"/>
<path d="M300 772H304V776H300V772Z" fill="#E5E7EB"/>
<path d="M320 772H324V776H320V772Z" fill="#E5E7EB"/>
<path d="M340 772H344V776H340V772Z" fill="#E5E7EB"/>
<path d="M360 772H364V776H360V772Z" fill="#E5E7EB"/>
<path d="M380 772H384V776H380V772Z" fill="#E5E7EB"/>
<path d="M400 772H404V776H400V772Z" fill="#E5E7EB"/>
<path d="M0 792H4V796H0V792Z" fill="#E5E7EB"/>
<path d="M20 792H24V796H20V792Z" fill="#E5E7EB"/>
<path d="M40 792H44V796H40V792Z" fill="#E5E7EB"/>
<path d="M60 792H64V796H60V792Z" fill="#E5E7EB"/>
<path d="M80 792H84V796H80V792Z" fill="#E5E7EB"/>
<path d="M100 792H104V796H100V792Z" fill="#E5E7EB"/>
<path d="M120 792H124V796H120V792Z" fill="#E5E7EB"/>
<path d="M140 792H144V796H140V792Z" fill="#E5E7EB"/>
<path d="M160 792H164V796H160V792Z" fill="#E5E7EB"/>
<path d="M180 792H184V796H180V792Z" fill="#E5E7EB"/>
<path d="M200 792H204V796H200V792Z" fill="#E5E7EB"/>
<path d="M220 792H224V796H220V792Z" fill="#E5E7EB"/>
<path d="M240 792H244V796H240V792Z" fill="#E5E7EB"/>
<path d="M260 792H264V796H260V792Z" fill="#E5E7EB"/>
<path d="M280 792H284V796H280V792Z" fill="#E5E7EB"/>
<path d="M300 792H304V796H300V792Z" fill="#E5E7EB"/>
<path d="M320 792H324V796H320V792Z" fill="#E5E7EB"/>
<path d="M340 792H344V796H340V792Z" fill="#E5E7EB"/>
<path d="M360 792H364V796H360V792Z" fill="#E5E7EB"/>
<path d="M380 792H384V796H380V792Z" fill="#E5E7EB"/>
<path d="M400 792H404V796H400V792Z" fill="#E5E7EB"/>
<path d="M0 812H4V816H0V812Z" fill="#E5E7EB"/>
<path d="M20 812H24V816H20V812Z" fill="#E5E7EB"/>
<path d="M40 812H44V816H40V812Z" fill="#E5E7EB"/>
<path d="M60 812H64V816H60V812Z" fill="#E5E7EB"/>
<path d="M80 812H84V816H80V812Z" fill="#E5E7EB"/>
<path d="M100 812H104V816H100V812Z" fill="#E5E7EB"/>
<path d="M120 812H124V816H120V812Z" fill="#E5E7EB"/>
<path d="M140 812H144V816H140V812Z" fill="#E5E7EB"/>
<path d="M160 812H164V816H160V812Z" fill="#E5E7EB"/>
<path d="M180 812H184V816H180V812Z" fill="#E5E7EB"/>
<path d="M200 812H204V816H200V812Z" fill="#E5E7EB"/>
<path d="M220 812H224V816H220V812Z" fill="#E5E7EB"/>
<path d="M240 812H244V816H240V812Z" fill="#E5E7EB"/>
<path d="M260 812H264V816H260V812Z" fill="#E5E7EB"/>
<path d="M280 812H284V816H280V812Z" fill="#E5E7EB"/>
<path d="M300 812H304V816H300V812Z" fill="#E5E7EB"/>
<path d="M320 812H324V816H320V812Z" fill="#E5E7EB"/>
<path d="M340 812H344V816H340V812Z" fill="#E5E7EB"/>
<path d="M360 812H364V816H360V812Z" fill="#E5E7EB"/>
<path d="M380 812H384V816H380V812Z" fill="#E5E7EB"/>
<path d="M400 812H404V816H400V812Z" fill="#E5E7EB"/>
<path d="M0 832H4V836H0V832Z" fill="#E5E7EB"/>
<path d="M20 832H24V836H20V832Z" fill="#E5E7EB"/>
<path d="M40 832H44V836H40V832Z" fill="#E5E7EB"/>
<path d="M60 832H64V836H60V832Z" fill="#E5E7EB"/>
<path d="M80 832H84V836H80V832Z" fill="#E5E7EB"/>
<path d="M100 832H104V836H100V832Z" fill="#E5E7EB"/>
<path d="M120 832H124V836H120V832Z" fill="#E5E7EB"/>
<path d="M140 832H144V836H140V832Z" fill="#E5E7EB"/>
<path d="M160 832H164V836H160V832Z" fill="#E5E7EB"/>
<path d="M180 832H184V836H180V832Z" fill="#E5E7EB"/>
<path d="M200 832H204V836H200V832Z" fill="#E5E7EB"/>
<path d="M220 832H224V836H220V832Z" fill="#E5E7EB"/>
<path d="M240 832H244V836H240V832Z" fill="#E5E7EB"/>
<path d="M260 832H264V836H260V832Z" fill="#E5E7EB"/>
<path d="M280 832H284V836H280V832Z" fill="#E5E7EB"/>
<path d="M300 832H304V836H300V832Z" fill="#E5E7EB"/>
<path d="M320 832H324V836H320V832Z" fill="#E5E7EB"/>
<path d="M340 832H344V836H340V832Z" fill="#E5E7EB"/>
<path d="M360 832H364V836H360V832Z" fill="#E5E7EB"/>
<path d="M380 832H384V836H380V832Z" fill="#E5E7EB"/>
<path d="M400 832H404V836H400V832Z" fill="#E5E7EB"/>
<path d="M0 852H4V856H0V852Z" fill="#E5E7EB"/>
<path d="M20 852H24V856H20V852Z" fill="#E5E7EB"/>
<path d="M40 852H44V856H40V852Z" fill="#E5E7EB"/>
<path d="M60 852H64V856H60V852Z" fill="#E5E7EB"/>
<path d="M80 852H84V856H80V852Z" fill="#E5E7EB"/>
<path d="M100 852H104V856H100V852Z" fill="#E5E7EB"/>
<path d="M120 852H124V856H120V852Z" fill="#E5E7EB"/>
<path d="M140 852H144V856H140V852Z" fill="#E5E7EB"/>
<path d="M160 852H164V856H160V852Z" fill="#E5E7EB"/>
<path d="M180 852H184V856H180V852Z" fill="#E5E7EB"/>
<path d="M200 852H204V856H200V852Z" fill="#E5E7EB"/>
<path d="M220 852H224V856H220V852Z" fill="#E5E7EB"/>
<path d="M240 852H244V856H240V852Z" fill="#E5E7EB"/>
<path d="M260 852H264V856H260V852Z" fill="#E5E7EB"/>
<path d="M280 852H284V856H280V852Z" fill="#E5E7EB"/>
<path d="M300 852H304V856H300V852Z" fill="#E5E7EB"/>
<path d="M320 852H324V856H320V852Z" fill="#E5E7EB"/>
<path d="M340 852H344V856H340V852Z" fill="#E5E7EB"/>
<path d="M360 852H364V856H360V852Z" fill="#E5E7EB"/>
<path d="M380 852H384V856H380V852Z" fill="#E5E7EB"/>
<path d="M400 852H404V856H400V852Z" fill="#E5E7EB"/>
<path d="M0 872H4V876H0V872Z" fill="#E5E7EB"/>
<path d="M20 872H24V876H20V872Z" fill="#E5E7EB"/>
<path d="M40 872H44V876H40V872Z" fill="#E5E7EB"/>
<path d="M60 872H64V876H60V872Z" fill="#E5E7EB"/>
<path d="M80 872H84V876H80V872Z" fill="#E5E7EB"/>
<path d="M100 872H104V876H100V872Z" fill="#E5E7EB"/>
<path d="M120 872H124V876H120V872Z" fill="#E5E7EB"/>
<path d="M140 872H144V876H140V872Z" fill="#E5E7EB"/>
<path d="M160 872H164V876H160V872Z" fill="#E5E7EB"/>
<path d="M180 872H184V876H180V872Z" fill="#E5E7EB"/>
<path d="M200 872H204V876H200V872Z" fill="#E5E7EB"/>
<path d="M220 872H224V876H220V872Z" fill="#E5E7EB"/>
<path d="M240 872H244V876H240V872Z" fill="#E5E7EB"/>
<path d="M260 872H264V876H260V872Z" fill="#E5E7EB"/>
<path d="M280 872H284V876H280V872Z" fill="#E5E7EB"/>
<path d="M300 872H304V876H300V872Z" fill="#E5E7EB"/>
<path d="M320 872H324V876H320V872Z" fill="#E5E7EB"/>
<path d="M340 872H344V876H340V872Z" fill="#E5E7EB"/>
<path d="M360 872H364V876H360V872Z" fill="#E5E7EB"/>
<path d="M380 872H384V876H380V872Z" fill="#E5E7EB"/>
<path d="M400 872H404V876H400V872Z" fill="#E5E7EB"/>
<path d="M0 892H4V896H0V892Z" fill="#E5E7EB"/>
<path d="M20 892H24V896H20V892Z" fill="#E5E7EB"/>
<path d="M40 892H44V896H40V892Z" fill="#E5E7EB"/>
<path d="M60 892H64V896H60V892Z" fill="#E5E7EB"/>
<path d="M80 892H84V896H80V892Z" fill="#E5E7EB"/>
<path d="M100 892H104V896H100V892Z" fill="#E5E7EB"/>
<path d="M120 892H124V896H120V892Z" fill="#E5E7EB"/>
<path d="M140 892H144V896H140V892Z" fill="#E5E7EB"/>
<path d="M160 892H164V896H160V892Z" fill="#E5E7EB"/>
<path d="M180 892H184V896H180V892Z" fill="#E5E7EB"/>
<path d="M200 892H204V896H200V892Z" fill="#E5E7EB"/>
<path d="M220 892H224V896H220V892Z" fill="#E5E7EB"/>
<path d="M240 892H244V896H240V892Z" fill="#E5E7EB"/>
<path d="M260 892H264V896H260V892Z" fill="#E5E7EB"/>
<path d="M280 892H284V896H280V892Z" fill="#E5E7EB"/>
<path d="M300 892H304V896H300V892Z" fill="#E5E7EB"/>
<path d="M320 892H324V896H320V892Z" fill="#E5E7EB"/>
<path d="M340 892H344V896H340V892Z" fill="#E5E7EB"/>
<path d="M360 892H364V896H360V892Z" fill="#E5E7EB"/>
<path d="M380 892H384V896H380V892Z" fill="#E5E7EB"/>
<path d="M400 892H404V896H400V892Z" fill="#E5E7EB"/>
<path d="M0 912H4V916H0V912Z" fill="#E5E7EB"/>
<path d="M20 912H24V916H20V912Z" fill="#E5E7EB"/>
<path d="M40 912H44V916H40V912Z" fill="#E5E7EB"/>
<path d="M60 912H64V916H60V912Z" fill="#E5E7EB"/>
<path d="M80 912H84V916H80V912Z" fill="#E5E7EB"/>
<path d="M100 912H104V916H100V912Z" fill="#E5E7EB"/>
<path d="M120 912H124V916H120V912Z" fill="#E5E7EB"/>
<path d="M140 912H144V916H140V912Z" fill="#E5E7EB"/>
<path d="M160 912H164V916H160V912Z" fill="#E5E7EB"/>
<path d="M180 912H184V916H180V912Z" fill="#E5E7EB"/>
<path d="M200 912H204V916H200V912Z" fill="#E5E7EB"/>
<path d="M220 912H224V916H220V912Z" fill="#E5E7EB"/>
<path d="M240 912H244V916H240V912Z" fill="#E5E7EB"/>
<path d="M260 912H264V916H260V912Z" fill="#E5E7EB"/>
<path d="M280 912H284V916H280V912Z" fill="#E5E7EB"/>
<path d="M300 912H304V916H300V912Z" fill="#E5E7EB"/>
<path d="M320 912H324V916H320V912Z" fill="#E5E7EB"/>
<path d="M340 912H344V916H340V912Z" fill="#E5E7EB"/>
<path d="M360 912H364V916H360V912Z" fill="#E5E7EB"/>
<path d="M380 912H384V916H380V912Z" fill="#E5E7EB"/>
<path d="M400 912H404V916H400V912Z" fill="#E5E7EB"/>
<path d="M0 932H4V936H0V932Z" fill="#E5E7EB"/>
<path d="M20 932H24V936H20V932Z" fill="#E5E7EB"/>
<path d="M40 932H44V936H40V932Z" fill="#E5E7EB"/>
<path d="M60 932H64V936H60V932Z" fill="#E5E7EB"/>
<path d="M80 932H84V936H80V932Z" fill="#E5E7EB"/>
<path d="M100 932H104V936H100V932Z" fill="#E5E7EB"/>
<path d="M120 932H124V936H120V932Z" fill="#E5E7EB"/>
<path d="M140 932H144V936H140V932Z" fill="#E5E7EB"/>
<path d="M160 932H164V936H160V932Z" fill="#E5E7EB"/>
<path d="M180 932H184V936H180V932Z" fill="#E5E7EB"/>
<path d="M200 932H204V936H200V932Z" fill="#E5E7EB"/>
<path d="M220 932H224V936H220V932Z" fill="#E5E7EB"/>
<path d="M240 932H244V936H240V932Z" fill="#E5E7EB"/>
<path d="M260 932H264V936H260V932Z" fill="#E5E7EB"/>
<path d="M280 932H284V936H280V932Z" fill="#E5E7EB"/>
<path d="M300 932H304V936H300V932Z" fill="#E5E7EB"/>
<path d="M320 932H324V936H320V932Z" fill="#E5E7EB"/>
<path d="M340 932H344V936H340V932Z" fill="#E5E7EB"/>
<path d="M360 932H364V936H360V932Z" fill="#E5E7EB"/>
<path d="M380 932H384V936H380V932Z" fill="#E5E7EB"/>
<path d="M400 932H404V936H400V932Z" fill="#E5E7EB"/>
<path d="M0 952H4V956H0V952Z" fill="#E5E7EB"/>
<path d="M20 952H24V956H20V952Z" fill="#E5E7EB"/>
<path d="M40 952H44V956H40V952Z" fill="#E5E7EB"/>
<path d="M60 952H64V956H60V952Z" fill="#E5E7EB"/>
<path d="M80 952H84V956H80V952Z" fill="#E5E7EB"/>
<path d="M100 952H104V956H100V952Z" fill="#E5E7EB"/>
<path d="M120 952H124V956H120V952Z" fill="#E5E7EB"/>
<path d="M140 952H144V956H140V952Z" fill="#E5E7EB"/>
<path d="M160 952H164V956H160V952Z" fill="#E5E7EB"/>
<path d="M180 952H184V956H180V952Z" fill="#E5E7EB"/>
<path d="M200 952H204V956H200V952Z" fill="#E5E7EB"/>
<path d="M220 952H224V956H220V952Z" fill="#E5E7EB"/>
<path d="M240 952H244V956H240V952Z" fill="#E5E7EB"/>
<path d="M260 952H264V956H260V952Z" fill="#E5E7EB"/>
<path d="M280 952H284V956H280V952Z" fill="#E5E7EB"/>
<path d="M300 952H304V956H300V952Z" fill="#E5E7EB"/>
<path d="M320 952H324V956H320V952Z" fill="#E5E7EB"/>
<path d="M340 952H344V956H340V952Z" fill="#E5E7EB"/>
<path d="M360 952H364V956H360V952Z" fill="#E5E7EB"/>
<path d="M380 952H384V956H380V952Z" fill="#E5E7EB"/>
<path d="M400 952H404V956H400V952Z" fill="#E5E7EB"/>
<path d="M0 972H4V976H0V972Z" fill="#E5E7EB"/>
<path d="M20 972H24V976H20V972Z" fill="#E5E7EB"/>
<path d="M40 972H44V976H40V972Z" fill="#E5E7EB"/>
<path d="M60 972H64V976H60V972Z" fill="#E5E7EB"/>
<path d="M80 972H84V976H80V972Z" fill="#E5E7EB"/>
<path d="M100 972H104V976H100V972Z" fill="#E5E7EB"/>
<path d="M120 972H124V976H120V972Z" fill="#E5E7EB"/>
<path d="M140 972H144V976H140V972Z" fill="#E5E7EB"/>
<path d="M160 972H164V976H160V972Z" fill="#E5E7EB"/>
<path d="M180 972H184V976H180V972Z" fill="#E5E7EB"/>
<path d="M200 972H204V976H200V972Z" fill="#E5E7EB"/>
<path d="M220 972H224V976H220V972Z" fill="#E5E7EB"/>
<path d="M240 972H244V976H240V972Z" fill="#E5E7EB"/>
<path d="M260 972H264V976H260V972Z" fill="#E5E7EB"/>
<path d="M280 972H284V976H280V972Z" fill="#E5E7EB"/>
<path d="M300 972H304V976H300V972Z" fill="#E5E7EB"/>
<path d="M320 972H324V976H320V972Z" fill="#E5E7EB"/>
<path d="M340 972H344V976H340V972Z" fill="#E5E7EB"/>
<path d="M360 972H364V976H360V972Z" fill="#E5E7EB"/>
<path d="M380 972H384V976H380V972Z" fill="#E5E7EB"/>
<path d="M400 972H404V976H400V972Z" fill="#E5E7EB"/>
<path d="M0 992H4V996H0V992Z" fill="#E5E7EB"/>
<path d="M20 992H24V996H20V992Z" fill="#E5E7EB"/>
<path d="M40 992H44V996H40V992Z" fill="#E5E7EB"/>
<path d="M60 992H64V996H60V992Z" fill="#E5E7EB"/>
<path d="M80 992H84V996H80V992Z" fill="#E5E7EB"/>
<path d="M100 992H104V996H100V992Z" fill="#E5E7EB"/>
<path d="M120 992H124V996H120V992Z" fill="#E5E7EB"/>
<path d="M140 992H144V996H140V992Z" fill="#E5E7EB"/>
<path d="M160 992H164V996H160V992Z" fill="#E5E7EB"/>
<path d="M180 992H184V996H180V992Z" fill="#E5E7EB"/>
<path d="M200 992H204V996H200V992Z" fill="#E5E7EB"/>
<path d="M220 992H224V996H220V992Z" fill="#E5E7EB"/>
<path d="M240 992H244V996H240V992Z" fill="#E5E7EB"/>
<path d="M260 992H264V996H260V992Z" fill="#E5E7EB"/>
<path d="M280 992H284V996H280V992Z" fill="#E5E7EB"/>
<path d="M300 992H304V996H300V992Z" fill="#E5E7EB"/>
<path d="M320 992H324V996H320V992Z" fill="#E5E7EB"/>
<path d="M340 992H344V996H340V992Z" fill="#E5E7EB"/>
<path d="M360 992H364V996H360V992Z" fill="#E5E7EB"/>
<path d="M380 992H384V996H380V992Z" fill="#E5E7EB"/>
<path d="M400 992H404V996H400V992Z" fill="#E5E7EB"/>
<path d="M0 1012H4V1016H0V1012Z" fill="#E5E7EB"/>
<path d="M20 1012H24V1016H20V1012Z" fill="#E5E7EB"/>
<path d="M40 1012H44V1016H40V1012Z" fill="#E5E7EB"/>
<path d="M60 1012H64V1016H60V1012Z" fill="#E5E7EB"/>
<path d="M80 1012H84V1016H80V1012Z" fill="#E5E7EB"/>
<path d="M100 1012H104V1016H100V1012Z" fill="#E5E7EB"/>
<path d="M120 1012H124V1016H120V1012Z" fill="#E5E7EB"/>
<path d="M140 1012H144V1016H140V1012Z" fill="#E5E7EB"/>
<path d="M160 1012H164V1016H160V1012Z" fill="#E5E7EB"/>
<path d="M180 1012H184V1016H180V1012Z" fill="#E5E7EB"/>
<path d="M200 1012H204V1016H200V1012Z" fill="#E5E7EB"/>
<path d="M220 1012H224V1016H220V1012Z" fill="#E5E7EB"/>
<path d="M240 1012H244V1016H240V1012Z" fill="#E5E7EB"/>
<path d="M260 1012H264V1016H260V1012Z" fill="#E5E7EB"/>
<path d="M280 1012H284V1016H280V1012Z" fill="#E5E7EB"/>
<path d="M300 1012H304V1016H300V1012Z" fill="#E5E7EB"/>
<path d="M320 1012H324V1016H320V1012Z" fill="#E5E7EB"/>
<path d="M340 1012H344V1016H340V1012Z" fill="#E5E7EB"/>
<path d="M360 1012H364V1016H360V1012Z" fill="#E5E7EB"/>
<path d="M380 1012H384V1016H380V1012Z" fill="#E5E7EB"/>
<path d="M400 1012H404V1016H400V1012Z" fill="#E5E7EB"/>
<path d="M0 1032H4V1036H0V1032Z" fill="#E5E7EB"/>
<path d="M20 1032H24V1036H20V1032Z" fill="#E5E7EB"/>
<path d="M40 1032H44V1036H40V1032Z" fill="#E5E7EB"/>
<path d="M60 1032H64V1036H60V1032Z" fill="#E5E7EB"/>
<path d="M80 1032H84V1036H80V1032Z" fill="#E5E7EB"/>
<path d="M100 1032H104V1036H100V1032Z" fill="#E5E7EB"/>
<path d="M120 1032H124V1036H120V1032Z" fill="#E5E7EB"/>
<path d="M140 1032H144V1036H140V1032Z" fill="#E5E7EB"/>
<path d="M160 1032H164V1036H160V1032Z" fill="#E5E7EB"/>
<path d="M180 1032H184V1036H180V1032Z" fill="#E5E7EB"/>
<path d="M200 1032H204V1036H200V1032Z" fill="#E5E7EB"/>
<path d="M220 1032H224V1036H220V1032Z" fill="#E5E7EB"/>
<path d="M240 1032H244V1036H240V1032Z" fill="#E5E7EB"/>
<path d="M260 1032H264V1036H260V1032Z" fill="#E5E7EB"/>
<path d="M280 1032H284V1036H280V1032Z" fill="#E5E7EB"/>
<path d="M300 1032H304V1036H300V1032Z" fill="#E5E7EB"/>
<path d="M320 1032H324V1036H320V1032Z" fill="#E5E7EB"/>
<path d="M340 1032H344V1036H340V1032Z" fill="#E5E7EB"/>
<path d="M360 1032H364V1036H360V1032Z" fill="#E5E7EB"/>
<path d="M380 1032H384V1036H380V1032Z" fill="#E5E7EB"/>
<path d="M400 1032H404V1036H400V1032Z" fill="#E5E7EB"/>
<path d="M0 1052H4V1056H0V1052Z" fill="#E5E7EB"/>
<path d="M20 1052H24V1056H20V1052Z" fill="#E5E7EB"/>
<path d="M40 1052H44V1056H40V1052Z" fill="#E5E7EB"/>
<path d="M60 1052H64V1056H60V1052Z" fill="#E5E7EB"/>
<path d="M80 1052H84V1056H80V1052Z" fill="#E5E7EB"/>
<path d="M100 1052H104V1056H100V1052Z" fill="#E5E7EB"/>
<path d="M120 1052H124V1056H120V1052Z" fill="#E5E7EB"/>
<path d="M140 1052H144V1056H140V1052Z" fill="#E5E7EB"/>
<path d="M160 1052H164V1056H160V1052Z" fill="#E5E7EB"/>
<path d="M180 1052H184V1056H180V1052Z" fill="#E5E7EB"/>
<path d="M200 1052H204V1056H200V1052Z" fill="#E5E7EB"/>
<path d="M220 1052H224V1056H220V1052Z" fill="#E5E7EB"/>
<path d="M240 1052H244V1056H240V1052Z" fill="#E5E7EB"/>
<path d="M260 1052H264V1056H260V1052Z" fill="#E5E7EB"/>
<path d="M280 1052H284V1056H280V1052Z" fill="#E5E7EB"/>
<path d="M300 1052H304V1056H300V1052Z" fill="#E5E7EB"/>
<path d="M320 1052H324V1056H320V1052Z" fill="#E5E7EB"/>
<path d="M340 1052H344V1056H340V1052Z" fill="#E5E7EB"/>
<path d="M360 1052H364V1056H360V1052Z" fill="#E5E7EB"/>
<path d="M380 1052H384V1056H380V1052Z" fill="#E5E7EB"/>
<path d="M400 1052H404V1056H400V1052Z" fill="#E5E7EB"/>
<path d="M0 1072H4V1076H0V1072Z" fill="#E5E7EB"/>
<path d="M20 1072H24V1076H20V1072Z" fill="#E5E7EB"/>
<path d="M40 1072H44V1076H40V1072Z" fill="#E5E7EB"/>
<path d="M60 1072H64V1076H60V1072Z" fill="#E5E7EB"/>
<path d="M80 1072H84V1076H80V1072Z" fill="#E5E7EB"/>
<path d="M100 1072H104V1076H100V1072Z" fill="#E5E7EB"/>
<path d="M120 1072H124V1076H120V1072Z" fill="#E5E7EB"/>
<path d="M140 1072H144V1076H140V1072Z" fill="#E5E7EB"/>
<path d="M160 1072H164V1076H160V1072Z" fill="#E5E7EB"/>
<path d="M180 1072H184V1076H180V1072Z" fill="#E5E7EB"/>
<path d="M200 1072H204V1076H200V1072Z" fill="#E5E7EB"/>
<path d="M220 1072H224V1076H220V1072Z" fill="#E5E7EB"/>
<path d="M240 1072H244V1076H240V1072Z" fill="#E5E7EB"/>
<path d="M260 1072H264V1076H260V1072Z" fill="#E5E7EB"/>
<path d="M280 1072H284V1076H280V1072Z" fill="#E5E7EB"/>
<path d="M300 1072H304V1076H300V1072Z" fill="#E5E7EB"/>
<path d="M320 1072H324V1076H320V1072Z" fill="#E5E7EB"/>
<path d="M340 1072H344V1076H340V1072Z" fill="#E5E7EB"/>
<path d="M360 1072H364V1076H360V1072Z" fill="#E5E7EB"/>
<path d="M380 1072H384V1076H380V1072Z" fill="#E5E7EB"/>
<path d="M400 1072H404V1076H400V1072Z" fill="#E5E7EB"/>
<path d="M0 1092H4V1096H0V1092Z" fill="#E5E7EB"/>
<path d="M20 1092H24V1096H20V1092Z" fill="#E5E7EB"/>
<path d="M40 1092H44V1096H40V1092Z" fill="#E5E7EB"/>
<path d="M60 1092H64V1096H60V1092Z" fill="#E5E7EB"/>
<path d="M80 1092H84V1096H80V1092Z" fill="#E5E7EB"/>
<path d="M100 1092H104V1096H100V1092Z" fill="#E5E7EB"/>
<path d="M120 1092H124V1096H120V1092Z" fill="#E5E7EB"/>
<path d="M140 1092H144V1096H140V1092Z" fill="#E5E7EB"/>
<path d="M160 1092H164V1096H160V1092Z" fill="#E5E7EB"/>
<path d="M180 1092H184V1096H180V1092Z" fill="#E5E7EB"/>
<path d="M200 1092H204V1096H200V1092Z" fill="#E5E7EB"/>
<path d="M220 1092H224V1096H220V1092Z" fill="#E5E7EB"/>
<path d="M240 1092H244V1096H240V1092Z" fill="#E5E7EB"/>
<path d="M260 1092H264V1096H260V1092Z" fill="#E5E7EB"/>
<path d="M280 1092H284V1096H280V1092Z" fill="#E5E7EB"/>
<path d="M300 1092H304V1096H300V1092Z" fill="#E5E7EB"/>
<path d="M320 1092H324V1096H320V1092Z" fill="#E5E7EB"/>
<path d="M340 1092H344V1096H340V1092Z" fill="#E5E7EB"/>
<path d="M360 1092H364V1096H360V1092Z" fill="#E5E7EB"/>
<path d="M380 1092H384V1096H380V1092Z" fill="#E5E7EB"/>
<path d="M400 1092H404V1096H400V1092Z" fill="#E5E7EB"/>
<path d="M0 1112H4V1116H0V1112Z" fill="#E5E7EB"/>
<path d="M20 1112H24V1116H20V1112Z" fill="#E5E7EB"/>
<path d="M40 1112H44V1116H40V1112Z" fill="#E5E7EB"/>
<path d="M60 1112H64V1116H60V1112Z" fill="#E5E7EB"/>
<path d="M80 1112H84V1116H80V1112Z" fill="#E5E7EB"/>
<path d="M100 1112H104V1116H100V1112Z" fill="#E5E7EB"/>
<path d="M120 1112H124V1116H120V1112Z" fill="#E5E7EB"/>
<path d="M140 1112H144V1116H140V1112Z" fill="#E5E7EB"/>
<path d="M160 1112H164V1116H160V1112Z" fill="#E5E7EB"/>
<path d="M180 1112H184V1116H180V1112Z" fill="#E5E7EB"/>
<path d="M200 1112H204V1116H200V1112Z" fill="#E5E7EB"/>
<path d="M220 1112H224V1116H220V1112Z" fill="#E5E7EB"/>
<path d="M240 1112H244V1116H240V1112Z" fill="#E5E7EB"/>
<path d="M260 1112H264V1116H260V1112Z" fill="#E5E7EB"/>
<path d="M280 1112H284V1116H280V1112Z" fill="#E5E7EB"/>
<path d="M300 1112H304V1116H300V1112Z" fill="#E5E7EB"/>
<path d="M320 1112H324V1116H320V1112Z" fill="#E5E7EB"/>
<path d="M340 1112H344V1116H340V1112Z" fill="#E5E7EB"/>
<path d="M360 1112H364V1116H360V1112Z" fill="#E5E7EB"/>
<path d="M380 1112H384V1116H380V1112Z" fill="#E5E7EB"/>
<path d="M400 1112H404V1116H400V1112Z" fill="#E5E7EB"/>
<path d="M0 1132H4V1136H0V1132Z" fill="#E5E7EB"/>
<path d="M20 1132H24V1136H20V1132Z" fill="#E5E7EB"/>
<path d="M40 1132H44V1136H40V1132Z" fill="#E5E7EB"/>
<path d="M60 1132H64V1136H60V1132Z" fill="#E5E7EB"/>
<path d="M80 1132H84V1136H80V1132Z" fill="#E5E7EB"/>
<path d="M100 1132H104V1136H100V1132Z" fill="#E5E7EB"/>
<path d="M120 1132H124V1136H120V1132Z" fill="#E5E7EB"/>
<path d="M140 1132H144V1136H140V1132Z" fill="#E5E7EB"/>
<path d="M160 1132H164V1136H160V1132Z" fill="#E5E7EB"/>
<path d="M180 1132H184V1136H180V1132Z" fill="#E5E7EB"/>
<path d="M200 1132H204V1136H200V1132Z" fill="#E5E7EB"/>
<path d="M220 1132H224V1136H220V1132Z" fill="#E5E7EB"/>
<path d="M240 1132H244V1136H240V1132Z" fill="#E5E7EB"/>
<path d="M260 1132H264V1136H260V1132Z" fill="#E5E7EB"/>
<path d="M280 1132H284V1136H280V1132Z" fill="#E5E7EB"/>
<path d="M300 1132H304V1136H300V1132Z" fill="#E5E7EB"/>
<path d="M320 1132H324V1136H320V1132Z" fill="#E5E7EB"/>
<path d="M340 1132H344V1136H340V1132Z" fill="#E5E7EB"/>
<path d="M360 1132H364V1136H360V1132Z" fill="#E5E7EB"/>
<path d="M380 1132H384V1136H380V1132Z" fill="#E5E7EB"/>
<path d="M400 1132H404V1136H400V1132Z" fill="#E5E7EB"/>
<path d="M0 1152H4V1156H0V1152Z" fill="#E5E7EB"/>
<path d="M20 1152H24V1156H20V1152Z" fill="#E5E7EB"/>
<path d="M40 1152H44V1156H40V1152Z" fill="#E5E7EB"/>
<path d="M60 1152H64V1156H60V1152Z" fill="#E5E7EB"/>
<path d="M80 1152H84V1156H80V1152Z" fill="#E5E7EB"/>
<path d="M100 1152H104V1156H100V1152Z" fill="#E5E7EB"/>
<path d="M120 1152H124V1156H120V1152Z" fill="#E5E7EB"/>
<path d="M140 1152H144V1156H140V1152Z" fill="#E5E7EB"/>
<path d="M160 1152H164V1156H160V1152Z" fill="#E5E7EB"/>
<path d="M180 1152H184V1156H180V1152Z" fill="#E5E7EB"/>
<path d="M200 1152H204V1156H200V1152Z" fill="#E5E7EB"/>
<path d="M220 1152H224V1156H220V1152Z" fill="#E5E7EB"/>
<path d="M240 1152H244V1156H240V1152Z" fill="#E5E7EB"/>
<path d="M260 1152H264V1156H260V1152Z" fill="#E5E7EB"/>
<path d="M280 1152H284V1156H280V1152Z" fill="#E5E7EB"/>
<path d="M300 1152H304V1156H300V1152Z" fill="#E5E7EB"/>
<path d="M320 1152H324V1156H320V1152Z" fill="#E5E7EB"/>
<path d="M340 1152H344V1156H340V1152Z" fill="#E5E7EB"/>
<path d="M360 1152H364V1156H360V1152Z" fill="#E5E7EB"/>
<path d="M380 1152H384V1156H380V1152Z" fill="#E5E7EB"/>
<path d="M400 1152H404V1156H400V1152Z" fill="#E5E7EB"/>
<path d="M0 1172H4V1176H0V1172Z" fill="#E5E7EB"/>
<path d="M20 1172H24V1176H20V1172Z" fill="#E5E7EB"/>
<path d="M40 1172H44V1176H40V1172Z" fill="#E5E7EB"/>
<path d="M60 1172H64V1176H60V1172Z" fill="#E5E7EB"/>
<path d="M80 1172H84V1176H80V1172Z" fill="#E5E7EB"/>
<path d="M100 1172H104V1176H100V1172Z" fill="#E5E7EB"/>
<path d="M120 1172H124V1176H120V1172Z" fill="#E5E7EB"/>
<path d="M140 1172H144V1176H140V1172Z" fill="#E5E7EB"/>
<path d="M160 1172H164V1176H160V1172Z" fill="#E5E7EB"/>
<path d="M180 1172H184V1176H180V1172Z" fill="#E5E7EB"/>
<path d="M200 1172H204V1176H200V1172Z" fill="#E5E7EB"/>
<path d="M220 1172H224V1176H220V1172Z" fill="#E5E7EB"/>
<path d="M240 1172H244V1176H240V1172Z" fill="#E5E7EB"/>
<path d="M260 1172H264V1176H260V1172Z" fill="#E5E7EB"/>
<path d="M280 1172H284V1176H280V1172Z" fill="#E5E7EB"/>
<path d="M300 1172H304V1176H300V1172Z" fill="#E5E7EB"/>
<path d="M320 1172H324V1176H320V1172Z" fill="#E5E7EB"/>
<path d="M340 1172H344V1176H340V1172Z" fill="#E5E7EB"/>
<path d="M360 1172H364V1176H360V1172Z" fill="#E5E7EB"/>
<path d="M380 1172H384V1176H380V1172Z" fill="#E5E7EB"/>
<path d="M400 1172H404V1176H400V1172Z" fill="#E5E7EB"/>
<path d="M0 1192H4V1196H0V1192Z" fill="#E5E7EB"/>
<path d="M20 1192H24V1196H20V1192Z" fill="#E5E7EB"/>
<path d="M40 1192H44V1196H40V1192Z" fill="#E5E7EB"/>
<path d="M60 1192H64V1196H60V1192Z" fill="#E5E7EB"/>
<path d="M80 1192H84V1196H80V1192Z" fill="#E5E7EB"/>
<path d="M100 1192H104V1196H100V1192Z" fill="#E5E7EB"/>
<path d="M120 1192H124V1196H120V1192Z" fill="#E5E7EB"/>
<path d="M140 1192H144V1196H140V1192Z" fill="#E5E7EB"/>
<path d="M160 1192H164V1196H160V1192Z" fill="#E5E7EB"/>
<path d="M180 1192H184V1196H180V1192Z" fill="#E5E7EB"/>
<path d="M200 1192H204V1196H200V1192Z" fill="#E5E7EB"/>
<path d="M220 1192H224V1196H220V1192Z" fill="#E5E7EB"/>
<path d="M240 1192H244V1196H240V1192Z" fill="#E5E7EB"/>
<path d="M260 1192H264V1196H260V1192Z" fill="#E5E7EB"/>
<path d="M280 1192H284V1196H280V1192Z" fill="#E5E7EB"/>
<path d="M300 1192H304V1196H300V1192Z" fill="#E5E7EB"/>
<path d="M320 1192H324V1196H320V1192Z" fill="#E5E7EB"/>
<path d="M340 1192H344V1196H340V1192Z" fill="#E5E7EB"/>
<path d="M360 1192H364V1196H360V1192Z" fill="#E5E7EB"/>
<path d="M380 1192H384V1196H380V1192Z" fill="#E5E7EB"/>
<path d="M400 1192H404V1196H400V1192Z" fill="#E5E7EB"/>
<path d="M0 1212H4V1216H0V1212Z" fill="#E5E7EB"/>
<path d="M20 1212H24V1216H20V1212Z" fill="#E5E7EB"/>
<path d="M40 1212H44V1216H40V1212Z" fill="#E5E7EB"/>
<path d="M60 1212H64V1216H60V1212Z" fill="#E5E7EB"/>
<path d="M80 1212H84V1216H80V1212Z" fill="#E5E7EB"/>
<path d="M100 1212H104V1216H100V1212Z" fill="#E5E7EB"/>
<path d="M120 1212H124V1216H120V1212Z" fill="#E5E7EB"/>
<path d="M140 1212H144V1216H140V1212Z" fill="#E5E7EB"/>
<path d="M160 1212H164V1216H160V1212Z" fill="#E5E7EB"/>
<path d="M180 1212H184V1216H180V1212Z" fill="#E5E7EB"/>
<path d="M200 1212H204V1216H200V1212Z" fill="#E5E7EB"/>
<path d="M220 1212H224V1216H220V1212Z" fill="#E5E7EB"/>
<path d="M240 1212H244V1216H240V1212Z" fill="#E5E7EB"/>
<path d="M260 1212H264V1216H260V1212Z" fill="#E5E7EB"/>
<path d="M280 1212H284V1216H280V1212Z" fill="#E5E7EB"/>
<path d="M300 1212H304V1216H300V1212Z" fill="#E5E7EB"/>
<path d="M320 1212H324V1216H320V1212Z" fill="#E5E7EB"/>
<path d="M340 1212H344V1216H340V1212Z" fill="#E5E7EB"/>
<path d="M360 1212H364V1216H360V1212Z" fill="#E5E7EB"/>
<path d="M380 1212H384V1216H380V1212Z" fill="#E5E7EB"/>
<path d="M400 1212H404V1216H400V1212Z" fill="#E5E7EB"/>
</g>
<defs>
<clipPath id="clip0">
<rect width="404" height="784" fill="white" transform="translate(0 392)"/>
</clipPath>
</defs>
</svg>
